<?xml version="1.0" standalone="no"?>
<!DOCTYPE svg PUBLIC "-//W3C//DTD SVG 20010904//EN"
 "http://www.w3.org/TR/2001/REC-SVG-20010904/DTD/svg10.dtd">
<svg version="1.0" xmlns="http://www.w3.org/2000/svg"
 width="480.000000pt" height="480.000000pt" viewBox="0 0 480.000000 480.000000"
 preserveAspectRatio="xMidYMid meet">
<metadata>
Created by potrace 1.14, written by Peter Selinger 2001-2017
</metadata>
<g transform="translate(0.000000,480.000000) scale(0.100000,-0.100000)"
fill="#000000" stroke="none">
<path d="M2630 4480 c-418 -74 -765 -365 -916 -768 -29 -77 -62 -220 -67 -293
l-4 -54 -304 -3 -304 -2 -37 72 c-109 212 -353 327 -582 274 -423 -99 -555
-613 -236 -913 35 -34 181 -113 206 -113 12 0 14 -106 14 -669 l0 -669 -28 -6
c-63 -16 -176 -87 -230 -146 -125 -134 -172 -346 -116 -518 36 -109 87 -183
176 -254 97 -77 183 -109 308 -114 254 -10 469 152 534 403 22 83 15 219 -15
298 -56 151 -174 270 -316 321 l-53 19 0 665 0 665 64 24 c149 56 278 201 317
355 l11 46 304 0 c283 0 304 -1 305 -17 0 -10 2 -25 4 -33 2 -8 7 -28 10 -43
11 -56 65 -190 109 -273 140 -262 390 -476 668 -568 257 -86 556 -84 796 7
l89 33 35 -61 c19 -33 178 -303 353 -600 175 -297 370 -628 432 -735 160 -273
162 -275 247 -286 41 -6 53 -2 141 47 53 29 112 66 131 83 44 39 64 95 53 147
-5 21 -65 134 -134 250 -69 117 -125 216 -125 220 0 5 -4 9 -10 9 -5 0 -10 4
-10 9 0 5 -73 132 -162 282 -89 151 -166 283 -172 294 -6 11 -51 88 -100 170
-50 83 -95 159 -101 170 -43 80 -156 264 -169 274 -13 11 -6 24 48 96 408 541
295 1293 -254 1699 -122 90 -351 187 -495 210 -103 17 -311 14 -415 -4z m140
-133 c0 20 52 10 78 -15 17 -15 29 -19 37 -12 18 15 26 0 10 -17 -13 -12 -19
-11 -47 10 -39 29 -68 40 -68 27 0 -6 8 -10 18 -10 9 0 30 -11 46 -25 35 -30
32 -30 63 -5 15 12 20 20 12 20 -11 0 -11 2 1 11 13 9 12 10 -2 5 -11 -3 -18
0 -18 7 0 7 -5 4 -11 -5 -8 -15 -13 -16 -29 -5 -24 14 -26 24 -5 24 8 0 15 -5
15 -10 0 -6 5 -6 13 1 6 5 27 7 45 5 26 -4 30 -8 21 -19 -6 -8 -8 -14 -3 -14
4 0 -9 -16 -29 -35 l-38 -36 -37 36 c-20 19 -40 35 -45 35 -4 0 28 -34 70 -76
43 -42 77 -80 76 -85 -2 -5 2 -9 7 -9 19 0 10 19 -27 54 l-38 36 38 36 c20 19
34 40 30 46 -4 7 0 9 10 5 11 -4 14 -2 10 9 -3 9 1 14 12 14 10 0 13 -4 9 -12
-5 -9 -3 -9 9 1 14 11 18 11 23 -3 4 -10 -8 -30 -36 -57 -23 -22 -39 -43 -37
-45 2 -3 23 15 46 38 22 24 41 37 41 31 0 -7 -18 -31 -40 -54 -39 -41 -41 -42
-58 -25 -16 16 -16 18 3 35 25 21 60 61 53 61 -3 0 -24 -18 -47 -40 l-42 -40
37 -35 c36 -36 57 -47 34 -20 -11 13 -8 22 22 53 37 38 69 90 49 78 -6 -4 -11
0 -11 9 0 12 4 14 19 6 10 -6 21 -8 24 -5 3 3 35 -5 71 -17 36 -13 64 -24 62
-26 -2 -2 24 -31 57 -64 l61 -59 -37 -35 c-39 -37 -42 -42 -28 -63 6 -10 22 1
63 43 l56 56 -41 39 c-22 22 -42 40 -44 40 -9 0 1 -13 34 -45 l36 -34 -46 -47
c-26 -26 -50 -44 -54 -41 -3 4 12 25 35 47 l41 40 -49 47 c-27 26 -46 51 -43
56 3 6 1 7 -5 3 -6 -3 -13 -2 -17 4 -13 20 23 9 39 -12 9 -13 14 -18 11 -11
-8 17 29 5 54 -18 11 -10 24 -19 29 -19 19 0 62 -26 62 -37 0 -7 -4 -13 -9
-13 -5 0 -39 -30 -75 -67 l-67 -67 -38 41 c-30 31 -42 38 -55 31 -9 -5 -14
-13 -11 -18 3 -4 -2 -10 -10 -14 -8 -3 -15 -10 -15 -16 0 -5 9 -2 19 7 11 9
18 20 15 25 -3 4 0 8 7 8 7 0 29 -17 50 -39 l38 -39 81 80 c45 44 84 77 87 74
3 -3 -30 -42 -74 -86 l-81 -80 34 -34 c19 -19 34 -40 34 -47 0 -7 -34 22 -76
64 -73 75 -94 89 -94 65 0 -6 3 -8 7 -5 8 9 163 -147 163 -164 0 -7 -31 18
-68 57 -72 73 -111 107 -98 87 4 -7 2 -13 -3 -13 -6 0 -11 -5 -11 -12 0 -9 3
-9 12 0 9 9 30 -7 90 -67 43 -44 78 -83 78 -88 0 -6 33 -44 74 -85 56 -56 72
-78 63 -87 -8 -8 -8 -11 0 -11 33 0 15 34 -54 104 l-75 76 75 75 c40 41 76 73
78 70 3 -2 5 4 6 14 1 12 -29 -13 -83 -67 -46 -48 -84 -81 -84 -74 0 7 35 49
78 92 89 92 102 107 102 115 0 4 -40 -35 -90 -87 -49 -51 -90 -87 -90 -81 0
13 170 193 183 193 4 0 7 -7 7 -16 0 -8 4 -13 8 -10 13 8 72 -54 72 -75 0 -7
3 -9 6 -6 4 3 16 -5 26 -19 21 -26 18 -39 -9 -39 -9 0 -17 -6 -19 -13 -1 -7 0
-8 3 -2 2 5 9 10 14 10 6 0 7 -4 4 -10 -3 -5 -2 -10 3 -10 6 0 12 7 16 15 6
17 26 20 26 4 0 -6 11 -25 25 -43 23 -31 24 -34 9 -47 -15 -12 -16 -11 -10 11
6 21 5 22 -4 7 -6 -9 -8 -21 -5 -27 7 -11 -29 -32 -39 -23 -3 3 -6 1 -6 -5 0
-19 16 -14 48 13 17 14 33 25 36 25 7 0 49 -91 49 -107 0 -7 4 -13 9 -13 5 0
7 -4 3 -10 -3 -5 -12 -7 -19 -4 -25 10 -28 -16 -4 -35 13 -11 20 -22 16 -26
-4 -4 -19 5 -35 19 -21 20 -25 28 -15 38 7 7 12 16 12 20 0 4 -9 -1 -19 -11
-20 -20 -20 -20 16 -56 32 -32 37 -34 48 -18 11 14 9 20 -12 36 -13 11 -22 22
-19 25 3 2 13 -1 23 -9 11 -9 14 -10 9 -1 -4 6 -4 12 1 12 11 0 35 -79 28 -91
-4 -5 -1 -9 6 -9 7 0 9 -3 5 -7 -7 -8 -11 -9 -37 -12 -5 0 -7 -5 -4 -11 3 -5
-2 -10 -12 -11 -13 0 -14 -2 -4 -6 8 -3 19 0 25 8 6 8 18 15 27 17 16 2 19 -7
35 -123 3 -21 8 -43 10 -47 3 -4 -4 -8 -15 -8 -12 0 -21 -4 -21 -9 0 -5 10 -7
23 -5 12 2 16 2 10 -2 -7 -3 -13 -10 -13 -15 0 -6 4 -8 8 -5 4 2 9 -6 10 -19
1 -13 -4 -27 -10 -31 -8 -5 -9 -2 -5 9 4 10 2 17 -4 17 -6 0 -9 -9 -6 -20 3
-11 -1 -23 -9 -28 -10 -6 -9 -11 9 -21 19 -13 21 -12 10 1 -7 8 -10 18 -6 21
14 15 19 5 18 -43 0 -54 -15 -66 -37 -30 -7 11 -18 20 -25 20 -7 0 -12 5 -10
12 1 6 -7 13 -18 15 l-20 3 20 -9 c11 -5 16 -10 11 -10 -11 -1 54 -61 65 -61
16 0 4 -40 -13 -46 -10 -3 -18 -10 -18 -15 0 -5 -7 -9 -16 -9 -8 0 -13 4 -10
8 3 5 -4 16 -15 25 -10 9 -19 12 -19 7 0 -6 7 -13 15 -16 8 -4 13 -10 10 -15
-3 -4 3 -12 13 -18 14 -7 21 -5 30 10 7 10 17 19 23 19 8 0 8 -4 2 -12 -6 -7
-11 -20 -11 -28 -1 -28 -13 -74 -23 -86 -5 -6 -7 -13 -4 -16 3 -2 -4 -29 -15
-59 -11 -29 -20 -55 -20 -56 0 -2 -7 -3 -16 -3 -8 0 -12 5 -9 10 3 6 -1 13 -9
16 -9 3 -16 10 -16 16 0 5 5 6 10 3 6 -3 10 -1 10 4 0 6 -5 11 -11 11 -5 0 -8
4 -4 9 6 10 -33 36 -42 28 -2 -3 4 -8 16 -12 14 -4 18 -12 15 -31 -3 -16 1
-26 11 -30 8 -3 12 -10 9 -15 -3 -5 2 -12 10 -15 9 -3 16 -10 16 -16 0 -5 -5
-6 -12 -2 -8 5 -9 2 -5 -10 6 -14 3 -17 -9 -12 -13 5 -14 3 -6 -6 8 -10 6 -20
-8 -38 -11 -14 -20 -31 -20 -37 0 -7 -4 -13 -8 -13 -5 0 -14 -11 -20 -25 -13
-28 -34 -34 -26 -7 5 13 4 14 -4 3 -6 -8 -23 -16 -39 -18 -49 -5 -53 -6 -53
-16 0 -5 8 -6 18 -2 9 4 26 9 37 12 l20 4 -20 -15 c-11 -8 -25 -20 -32 -25 -8
-7 -13 -7 -16 2 -4 9 -6 9 -6 0 -1 -6 3 -14 8 -17 7 -5 19 2 67 43 7 5 14 7
17 5 7 -8 -25 -44 -34 -39 -4 3 -6 -1 -5 -8 2 -19 -60 -87 -79 -87 -9 0 -14
-4 -10 -9 3 -5 1 -12 -5 -16 -5 -3 -10 1 -10 9 0 8 -4 17 -9 20 -4 3 -6 -6 -3
-20 4 -24 -19 -53 -43 -54 -5 0 -3 5 5 10 12 8 9 9 -10 6 -17 -2 -29 3 -38 18
-10 16 -12 17 -8 3 4 -13 -7 -31 -34 -59 -43 -44 -55 -66 -16 -29 20 19 24 20
29 7 4 -9 2 -16 -3 -16 -5 0 -26 -11 -46 -25 -38 -26 -65 -25 -30 1 19 14 19
14 -2 34 -12 12 -22 16 -22 11 0 -6 7 -14 16 -19 14 -8 14 -10 0 -21 -9 -8
-16 -19 -16 -26 0 -12 -58 -45 -86 -49 -7 -1 -16 -5 -20 -9 -3 -3 -20 -4 -38
-1 -23 3 -26 2 -12 -4 19 -8 19 -9 -2 -14 -13 -4 -22 -2 -22 5 0 7 -7 3 -15
-7 -14 -18 -15 -18 -43 12 -16 17 -32 28 -36 25 -3 -3 -6 -1 -6 5 0 7 -5 12
-11 12 -5 0 -7 -4 -4 -10 3 -5 2 -10 -4 -10 -5 0 -12 5 -14 10 -3 6 -4 5 -3
-2 1 -7 12 -14 24 -14 12 -1 28 -7 36 -13 16 -14 12 -37 -7 -38 -7 0 -24 -3
-39 -6 -16 -3 -28 -1 -28 4 0 5 -5 9 -11 9 -5 0 -8 -4 -4 -9 3 -5 1 -12 -5
-16 -5 -3 -10 -2 -10 3 0 6 -16 26 -35 45 -25 25 -33 40 -28 53 4 11 3 15 -4
11 -6 -4 -13 -4 -15 1 -1 4 -16 18 -33 30 -16 13 -30 31 -30 39 0 9 -6 17 -13
19 -7 1 -8 0 -2 -3 5 -2 10 -9 10 -14 0 -6 -4 -7 -10 -4 -5 3 -10 2 -10 -3 0
-5 12 -15 26 -23 29 -15 74 -65 74 -82 0 -6 -15 5 -34 25 -19 20 -46 44 -59
53 -14 9 -24 24 -22 33 1 9 0 11 -2 4 -3 -7 -9 -10 -14 -7 -5 4 -9 1 -9 -4 0
-6 5 -11 10 -11 6 0 33 -23 61 -50 28 -28 56 -52 62 -53 11 -2 67 -51 67 -58
0 -2 -46 -3 -102 -2 -57 1 -113 3 -125 3 -13 0 -23 6 -23 13 0 8 -4 7 -10 -3
-8 -12 -10 -10 -11 10 0 17 -3 20 -7 10 -10 -21 -41 -24 -48 -5 -3 8 -14 15
-23 15 -14 0 -14 -2 -1 -10 13 -8 12 -10 -2 -10 -10 0 -18 5 -18 11 0 5 -4 7
-10 4 -5 -3 -10 -2 -10 3 0 6 -9 8 -20 5 -12 -3 -20 0 -20 6 0 7 -6 11 -12 10
-20 -3 -68 12 -68 22 0 5 7 6 15 3 8 -4 15 -1 15 6 0 6 -4 9 -9 6 -15 -10 -22
26 -9 43 12 14 11 14 -4 3 -10 -8 -16 -23 -15 -34 1 -12 -4 -23 -11 -25 -8 -3
-10 1 -5 14 6 15 4 16 -8 6 -12 -10 -21 -8 -42 6 -15 10 -24 21 -20 26 5 4 0
5 -9 2 -10 -4 -18 -2 -18 4 0 6 -4 7 -10 4 -5 -3 -10 -3 -10 2 0 4 -13 14 -29
21 -16 7 -39 22 -52 33 -13 12 -33 27 -43 35 -11 7 -17 16 -13 20 3 3 21 -8
39 -24 18 -17 34 -29 37 -27 10 10 -65 64 -81 59 -12 -4 -18 0 -18 11 0 9 -6
15 -12 13 -13 -5 -78 66 -78 85 0 6 -3 7 -7 4 -9 -10 -35 31 -28 43 4 7 13 6
26 -1 14 -7 24 -7 33 0 7 6 17 7 21 3 5 -4 5 -1 1 6 -4 6 -2 12 3 12 6 0 11 5
11 11 0 5 -4 7 -10 4 -28 -17 -2 15 65 83 42 41 74 77 71 79 -2 2 -35 -28 -74
-68 -67 -68 -71 -70 -81 -50 -7 11 -16 21 -21 21 -6 0 -2 -9 7 -20 20 -23 24
-57 8 -70 -14 -12 -48 -2 -39 11 3 5 1 9 -4 9 -6 0 -12 -7 -16 -15 -7 -19 -26
-20 -26 -2 0 8 -9 22 -19 31 -12 11 -17 25 -14 39 4 18 3 19 -6 7 -9 -13 -11
-13 -11 1 0 9 -7 22 -15 29 -8 7 -12 16 -9 21 3 5 0 9 -5 9 -6 0 -11 9 -11 20
0 11 -4 20 -10 20 -5 0 -9 3 -8 8 1 4 -3 17 -10 30 -7 12 -11 22 -8 22 3 0 -4
20 -15 45 -15 34 -17 49 -9 64 15 29 12 38 -6 15 -15 -19 -15 -19 -11 2 2 12
1 28 -4 36 -7 12 -2 15 24 15 19 -1 35 -8 39 -17 6 -13 7 -12 7 3 2 31 21 23
88 -40 19 -18 39 -33 44 -33 5 0 8 -5 6 -12 -1 -6 7 -13 18 -15 l20 -3 -20 9
c-11 5 -16 10 -12 10 5 1 -10 18 -32 39 -23 21 -38 42 -34 46 4 4 0 4 -9 1 -9
-4 -18 -2 -22 3 -3 5 44 9 109 9 106 0 114 -2 120 -21 13 -38 13 -46 4 -46 -5
0 -9 7 -9 15 0 8 -4 15 -8 15 -18 0 -7 -29 15 -39 13 -6 24 -15 24 -21 2 -11
5 -25 9 -37 1 -5 2 -11 1 -15 0 -5 3 -8 8 -8 5 0 15 -15 22 -32 7 -18 21 -41
30 -52 10 -10 15 -25 12 -33 -3 -8 0 -13 8 -11 9 2 13 -4 11 -17 -2 -11 -5
-30 -6 -42 -3 -27 -7 -33 -33 -37 -10 -2 -35 -20 -55 -40 -23 -23 -42 -34 -52
-30 -9 3 -16 2 -16 -3 0 -24 44 -8 80 29 22 23 40 38 40 34 0 -4 14 1 30 11
17 9 30 21 30 26 0 4 -4 5 -10 2 -5 -3 -10 1 -10 10 0 9 4 13 10 10 6 -3 7 1
4 9 -9 24 1 19 40 -20 l36 -36 -62 -62 c-35 -33 -69 -62 -77 -64 -7 -1 -20 -9
-28 -18 -14 -13 -13 -17 7 -34 30 -26 38 -26 15 0 -14 16 -15 22 -5 35 7 8 16
12 21 10 4 -3 37 25 73 62 64 66 65 67 83 47 10 -11 45 -35 78 -54 33 -19 63
-38 67 -44 4 -6 8 -7 8 -3 0 5 6 5 13 0 6 -4 19 -8 27 -10 8 -1 20 -10 27 -19
7 -10 13 -12 13 -6 0 7 5 12 11 12 5 0 7 -4 4 -10 -4 -6 6 -8 25 -6 17 2 33
-1 36 -6 3 -5 15 -6 27 -2 20 6 21 5 7 -11 -14 -17 -13 -17 5 -8 11 6 50 10
88 10 38 -1 67 2 68 8 0 6 3 4 6 -3 2 -6 9 -9 15 -6 6 4 27 9 47 11 20 3 44
10 54 15 10 5 21 7 25 4 3 -3 0 -6 -6 -6 -7 0 24 -36 69 -79 57 -56 86 -78 98
-73 14 5 14 4 2 -11 -12 -15 -12 -17 3 -11 20 8 16 29 -5 29 -22 0 -158 136
-152 151 2 7 11 15 19 18 9 3 12 1 9 -4 -3 -6 -1 -10 4 -10 6 0 11 5 11 11 0
5 5 7 10 4 6 -4 8 -11 4 -16 -3 -5 14 -28 38 -49 45 -42 58 -48 58 -28 0 6 -3
9 -6 5 -3 -3 -24 10 -45 30 -29 27 -36 39 -27 45 10 6 10 8 1 8 -7 0 -13 5
-13 12 0 6 3 9 6 5 4 -3 13 1 22 9 12 13 16 13 23 2 5 -7 9 -10 9 -5 0 27 25
46 60 47 18 0 21 3 11 9 -10 6 -5 12 17 22 17 7 28 17 26 21 -3 4 -1 8 4 8 5
0 25 16 45 35 20 19 33 35 30 35 -3 0 2 9 12 20 10 11 25 20 34 20 12 0 13 2
3 9 -10 6 -10 10 2 20 8 7 20 10 26 6 5 -3 10 -2 10 4 0 5 -6 11 -12 14 -7 2
-10 8 -6 12 11 12 36 -13 33 -33 -1 -9 0 -11 2 -4 3 7 9 10 14 7 17 -11 9 7
-11 23 -14 12 -18 24 -14 40 l6 22 26 -25 c13 -14 29 -25 34 -25 5 0 7 -4 4
-8 -3 -5 4 -16 15 -25 10 -9 19 -13 19 -7 0 5 -8 14 -17 19 -10 6 -14 11 -10
11 5 0 -8 15 -27 34 -39 36 -41 43 -26 66 9 13 12 12 25 -4 8 -11 15 -16 15
-11 0 5 -7 17 -17 27 -14 16 -14 18 -1 18 9 0 18 -7 22 -15 3 -8 13 -14 23
-14 17 1 17 2 0 6 -9 2 -15 8 -12 13 3 5 -4 11 -15 15 -21 7 -26 20 -11 30 6
3 10 14 10 25 1 11 1 29 2 39 0 11 21 38 45 60 25 23 41 41 37 41 -5 0 -22
-13 -38 -30 -16 -16 -34 -30 -39 -30 -8 0 -8 3 -1 8 6 4 10 33 10 65 0 31 3
57 7 57 4 0 8 -5 8 -12 0 -6 3 -8 7 -4 5 4 0 14 -11 21 -12 9 -17 21 -13 35 3
11 1 20 -3 20 -5 0 -9 8 -9 18 0 15 -6 47 -11 62 -1 3 -2 9 -1 14 1 4 -2 13
-7 20 -5 6 -12 24 -16 39 -4 16 -17 45 -30 65 -12 20 -21 43 -18 51 3 8 0 11
-6 7 -12 -7 -25 22 -15 36 3 6 1 8 -5 4 -6 -3 -20 6 -31 21 -11 16 -25 33 -31
40 -5 7 -10 17 -10 23 0 5 -5 10 -11 10 -5 0 -7 -6 -3 -12 4 -8 3 -10 -2 -5
-5 5 -9 14 -9 20 -1 7 -6 11 -13 10 -7 -2 -9 4 -5 14 4 11 3 14 -6 9 -7 -5
-22 0 -34 11 -12 11 -39 30 -59 42 -21 13 -38 30 -38 39 0 13 -2 14 -9 4 -6
-10 -19 -8 -64 12 -30 13 -59 21 -63 18 -4 -4 -4 1 -1 11 5 14 3 16 -12 8 -10
-6 -21 -8 -24 -5 -5 5 -60 12 -137 17 -14 1 -28 9 -32 17 -6 13 -7 12 -7 -2
-1 -17 -16 -19 -40 -4 -10 6 -12 5 -7 -2 4 -7 0 -12 -11 -13 -41 -2 -82 -11
-145 -34 -58 -20 -66 -21 -62 -7 3 10 -1 7 -8 -5 -7 -12 -18 -19 -24 -15 -7 5
-3 15 12 31 20 22 24 23 30 8 3 -9 11 -17 17 -17 5 0 3 8 -6 18 -27 30 -19 38
10 11 20 -18 23 -19 13 -4 -32 43 -38 46 -45 25 -7 -22 -65 -74 -73 -65 -4 3
7 17 22 30 16 14 24 25 18 25 -6 0 -17 -7 -25 -15 -8 -8 -17 -12 -19 -9 -3 2
-5 -6 -4 -18 1 -13 7 -23 16 -23 8 0 16 -4 16 -10 1 -5 -2 -9 -7 -7 -5 1 -9
-2 -9 -8 0 -5 -7 -6 -17 -3 -12 5 -14 3 -8 -8 8 -12 6 -12 -8 0 -15 12 -17 12
-11 -3 3 -9 1 -16 -5 -16 -6 0 -11 9 -11 20 0 11 -4 20 -10 20 -6 0 -6 -9 0
-26 13 -33 13 -34 -7 -27 -11 4 -14 3 -9 -5 4 -7 1 -12 -9 -12 -10 0 -13 -5
-9 -12 4 -7 4 -10 -1 -6 -4 4 -16 -2 -26 -14 -11 -11 -20 -17 -20 -12 -1 5 -2
16 -3 24 -1 18 -28 20 -32 2 -1 -7 0 -8 3 -2 7 15 26 12 20 -3 -3 -8 -2 -19 2
-26 10 -16 -51 -82 -64 -69 -7 6 -4 13 8 19 9 6 17 18 16 27 0 14 -2 14 -6 2
-4 -8 -13 -20 -21 -26 -11 -8 -12 -15 -4 -31 11 -20 7 -33 -9 -33 -5 0 -6 7
-3 15 4 8 2 15 -3 15 -5 0 -9 -9 -10 -20 -1 -11 2 -20 7 -20 5 0 7 -7 4 -15
-4 -8 -10 -15 -16 -15 -5 0 -7 4 -4 8 3 5 -4 16 -15 25 -10 9 -19 12 -19 7 0
-6 6 -13 14 -16 7 -3 12 -15 11 -27 -1 -12 -3 -29 -4 -37 -1 -9 -13 -1 -35 22
-19 20 -37 34 -40 30 -3 -3 -6 0 -6 6 0 7 -5 12 -11 12 -7 0 9 -20 35 -44 43
-39 47 -46 36 -66 -10 -19 -15 -36 -24 -77 -3 -18 -16 -28 -16 -13 0 7 -3 11
-6 8 -3 -4 0 -16 6 -28 11 -20 10 -21 -12 -15 -20 5 -21 5 -6 -7 14 -12 -11
-14 -162 -13 -98 0 -181 3 -185 7 -4 4 -4 12 1 19 4 7 8 28 8 48 1 20 7 36 15
39 9 3 11 0 6 -7 -11 -18 -13 -61 -3 -55 5 3 7 11 5 17 -3 7 7 27 20 45 22 29
24 37 14 59 -16 34 -9 38 16 9 15 -17 18 -27 10 -35 -8 -8 -8 -11 1 -11 7 0
12 5 12 11 0 5 5 7 10 4 20 -12 9 4 -26 39 -20 20 -34 39 -31 43 8 7 83 -67
80 -79 -2 -4 2 -8 7 -8 6 0 10 4 10 10 0 11 -54 65 -88 87 -17 12 -20 19 -11
29 6 7 8 18 4 24 -3 5 0 10 7 10 7 0 45 -33 85 -74 54 -55 69 -76 60 -85 -8
-8 -8 -11 1 -11 7 0 12 5 12 11 0 5 5 7 10 4 25 -15 4 9 -75 88 -46 46 -87 82
-90 79 -3 -3 5 17 17 45 17 37 26 48 35 41 8 -7 17 0 29 24 11 20 19 28 22 20
2 -8 -5 -27 -17 -43 -14 -18 -16 -26 -7 -23 25 10 48 104 25 104 -6 0 -7 -4
-4 -10 3 -5 2 -10 -4 -10 -5 0 -13 -9 -16 -20 -4 -11 -11 -18 -16 -15 -5 3 -6
-2 -3 -12 5 -15 4 -15 -5 -3 -7 10 -6 19 2 30 7 8 19 27 27 43 10 20 16 24 23
15 6 -9 7 -6 4 8 -3 13 3 26 14 35 10 7 15 17 12 22 -3 6 -1 7 4 4 6 -4 13 3
16 14 3 12 10 18 16 14 7 -4 8 0 4 11 -4 11 -3 15 5 10 6 -3 13 2 17 11 6 20
51 73 61 73 3 0 0 -8 -7 -17 -11 -15 -11 -16 0 -6 7 6 18 21 25 34 6 12 19 27
30 33 10 6 30 21 45 34 24 22 26 22 32 5 7 -16 8 -15 8 4 1 12 11 29 23 37 21
15 23 15 30 -4 10 -27 16 -25 11 3 -4 20 2 27 34 43 21 10 40 19 43 20 3 1 15
5 28 9 12 4 22 12 22 18 0 6 3 7 6 4 4 -3 15 -2 25 3 20 11 72 -7 63 -21 -3
-5 -1 -9 5 -9 5 0 12 6 15 13 5 10 7 10 12 0 3 -7 10 -13 15 -13 6 0 8 4 4 9
-3 5 3 12 12 14 10 3 1 4 -19 2 -22 -1 -45 4 -55 12 -17 13 -16 14 4 10 12 -3
25 0 28 7 3 8 7 8 11 -1 8 -18 25 -16 18 2 -5 11 1 15 22 17 29 1 44 4 54 8 3
1 22 4 43 5 26 2 35 -1 29 -7 -6 -6 -22 -10 -36 -10 -14 0 -26 -5 -26 -10 0
-5 5 -6 10 -3 6 3 10 1 10 -4 0 -6 5 -11 11 -11 5 0 7 5 4 10 -3 6 -3 10 0 10
11 0 161 -153 168 -170 4 -12 6 -12 6 2 1 9 -33 50 -75 91 -69 69 -75 76 -63
95 10 15 15 18 21 9 6 -9 8 -9 8 0z m734 -223 l28 -25 -83 -84 -83 -83 -20 26
c-11 15 -25 30 -30 34 -10 7 132 158 149 157 6 0 23 -11 39 -25z m-1669 -541
c-1 -15 2 -37 8 -50 12 -26 -6 -55 -29 -46 -19 7 -18 33 4 50 9 8 11 12 5 8
-15 -7 -18 11 -4 19 5 3 7 15 4 26 -3 11 -1 20 5 20 6 0 9 -12 7 -27z m1637
-1117 c10 -14 -35 -46 -49 -34 -9 7 -8 14 4 28 17 20 33 22 45 6z"/>
<path d="M2640 4320 c0 -5 5 -10 11 -10 5 0 7 5 4 10 -3 6 -8 10 -11 10 -2 0
-4 -4 -4 -10z"/>
<path d="M2750 4326 c0 -3 36 -40 80 -84 60 -60 76 -82 68 -90 -9 -9 -9 -12 0
-12 7 0 12 5 12 11 0 5 5 7 10 4 25 -15 4 9 -76 89 -83 82 -94 92 -94 82z"/>
<path d="M3085 4312 c-6 -4 -22 -23 -35 -42 -13 -19 -33 -43 -44 -53 -10 -9
-17 -20 -14 -23 4 -3 19 12 35 32 15 21 40 50 55 66 25 26 26 37 3 20z"/>
<path d="M2620 4300 c0 -5 5 -10 11 -10 5 0 7 5 4 10 -3 6 -8 10 -11 10 -2 0
-4 -4 -4 -10z"/>
<path d="M3104 4293 c-10 -7 -14 -13 -8 -14 5 0 0 -4 -11 -9 -16 -7 -17 -9 -3
-9 9 -1 21 6 26 15 8 15 13 13 41 -12 26 -23 29 -29 16 -36 -8 -5 -15 -13 -15
-19 0 -5 9 -1 20 9 l21 19 -35 35 c-30 30 -36 32 -52 21z"/>
<path d="M2655 4290 c3 -5 8 -10 11 -10 2 0 4 5 4 10 0 6 -5 10 -11 10 -5 0
-7 -4 -4 -10z"/>
<path d="M2464 4272 c-11 -10 -24 -17 -30 -15 -6 2 -17 -4 -25 -14 -13 -16
-12 -17 4 -4 9 8 21 10 25 6 4 -4 1 -10 -5 -12 -7 -3 -13 -9 -13 -14 0 -6 4
-8 9 -4 5 3 11 0 14 -7 2 -7 3 -5 1 6 -1 10 9 29 22 43 29 29 27 42 -2 15z"/>
<path d="M2680 4274 c0 -8 -4 -12 -10 -9 -5 3 -10 1 -10 -4 0 -6 5 -11 12 -11
6 0 9 -3 5 -6 -3 -3 11 -22 32 -43 21 -20 41 -43 44 -51 5 -13 6 -13 6 0 1 8
-17 34 -38 57 -28 30 -38 47 -34 62 3 12 3 21 -1 21 -3 0 -6 -7 -6 -16z"/>
<path d="M2763 4229 c34 -34 61 -66 60 -70 -2 -5 1 -9 7 -9 6 0 10 4 10 10 0
11 -121 130 -132 130 -4 0 21 -28 55 -61z"/>
<path d="M3177 4283 c-3 -2 23 -31 56 -64 l61 -60 -28 -25 c-15 -14 -30 -23
-34 -19 -4 4 3 15 15 25 l23 18 -35 35 c-32 32 -45 36 -45 14 0 -6 3 -8 6 -4
3 3 18 -5 32 -18 25 -23 25 -26 10 -42 -15 -14 -19 -14 -34 -2 -12 9 -15 10
-10 2 4 -7 2 -13 -3 -13 -6 0 -11 -5 -11 -11 0 -8 4 -8 14 0 11 10 17 8 29 -9
14 -20 15 -20 50 15 l35 35 -64 64 c-34 35 -65 62 -67 59z"/>
<path d="M2633 4260 c-1 -10 15 -36 35 -56 20 -21 36 -41 35 -46 -2 -4 2 -8 7
-8 19 0 10 17 -30 58 -26 26 -38 46 -34 56 3 9 2 16 -3 16 -5 0 -9 -9 -10 -20z"/>
<path d="M2500 4259 c0 -5 5 -7 10 -4 6 3 10 8 10 11 0 2 -4 4 -10 4 -5 0 -10
-5 -10 -11z"/>
<path d="M2605 4260 c3 -5 8 -10 11 -10 2 0 4 5 4 10 0 6 -5 10 -11 10 -5 0
-7 -4 -4 -10z"/>
<path d="M2700 4260 c0 -5 5 -10 11 -10 5 0 7 5 4 10 -3 6 -8 10 -11 10 -2 0
-4 -4 -4 -10z"/>
<path d="M2475 4250 c-3 -5 -1 -10 4 -10 6 0 11 5 11 10 0 6 -2 10 -4 10 -3 0
-8 -4 -11 -10z"/>
<path d="M3110 4251 c0 -5 -11 -8 -24 -5 -18 3 -28 -3 -42 -23 -9 -15 -26 -36
-36 -47 -10 -11 -18 -24 -18 -29 0 -6 16 10 35 34 19 24 35 47 35 52 0 4 5 7
11 7 5 0 7 -4 4 -10 -3 -5 -1 -10 4 -10 6 0 11 5 11 11 0 5 4 8 9 4 5 -3 12
-1 16 5 4 6 11 7 17 4 7 -4 3 -11 -10 -18 -11 -6 -21 -15 -21 -21 0 -5 -8 -13
-18 -17 -17 -7 -17 -8 0 -5 10 1 17 6 15 10 -2 5 9 15 25 23 31 17 34 29 11
38 -21 8 -24 8 -24 -3z"/>
<path d="M2358 4231 c-15 -9 -30 -21 -32 -27 -4 -11 6 -11 72 -2 6 1 12 6 12
11 0 5 -8 6 -17 2 -10 -4 -27 -9 -38 -12 -19 -4 -20 -4 -1 11 10 8 24 17 30
19 6 2 9 6 6 9 -3 3 -17 -2 -32 -11z"/>
<path d="M2514 4238 c-3 -5 -3 -12 0 -15 3 -4 6 -1 6 5 0 7 5 12 11 12 5 0 7
-4 4 -10 -3 -5 -2 -10 4 -10 5 0 12 6 15 13 5 10 7 10 12 0 3 -7 10 -13 15
-13 6 0 7 5 4 10 -3 6 -2 10 4 10 5 0 12 -5 14 -10 3 -6 4 -5 3 2 -3 15 -83
21 -92 6z"/>
<path d="M2750 4201 c29 -28 36 -41 27 -50 -8 -8 -8 -11 1 -11 7 0 12 5 12 11
0 5 5 7 10 4 21 -13 8 5 -32 44 -22 23 -45 41 -49 41 -5 0 9 -17 31 -39z"/>
<path d="M2460 4222 c0 -4 9 -8 20 -9 11 -1 20 2 20 5 0 4 -9 8 -20 9 -11 1
-20 -2 -20 -5z"/>
<path d="M2620 4220 c0 -5 5 -10 11 -10 5 0 7 5 4 10 -3 6 -8 10 -11 10 -2 0
-4 -4 -4 -10z"/>
<path d="M2523 4203 c9 -2 15 -9 12 -14 -4 -5 -1 -9 4 -9 6 0 11 5 11 12 0 6
8 3 20 -7 11 -10 17 -22 14 -26 -3 -5 0 -9 5 -9 37 0 -16 56 -54 57 -16 0 -22
-1 -12 -4z"/>
<path d="M2604 4186 c15 -13 26 -28 26 -35 0 -6 5 -11 10 -11 7 0 7 6 1 18
-20 32 -38 52 -50 52 -7 0 -1 -11 13 -24z"/>
<path d="M3037 4175 c-15 -19 -23 -35 -17 -35 5 0 10 3 10 8 0 4 11 20 25 35
14 15 22 27 18 27 -4 0 -21 -16 -36 -35z"/>
<path d="M3125 4200 c-3 -5 -1 -10 4 -10 6 0 11 5 11 10 0 6 -2 10 -4 10 -3 0
-8 -4 -11 -10z"/>
<path d="M3170 4196 c0 -9 -5 -14 -10 -11 -6 3 -13 -1 -16 -9 -3 -9 -10 -16
-16 -16 -5 0 -6 5 -3 10 3 6 1 10 -4 10 -6 0 -11 -4 -11 -9 0 -5 -11 -8 -24
-5 -17 3 -28 -3 -40 -20 -8 -14 -23 -23 -33 -22 -10 2 -12 1 -5 -1 7 -3 10 -9
7 -14 -4 -5 -3 -9 2 -9 4 0 17 14 28 30 18 27 45 45 30 20 -3 -5 -1 -10 4 -10
6 0 11 4 11 9 0 5 11 8 25 5 17 -3 27 1 31 11 3 8 10 12 15 9 11 -6 24 24 15
33 -3 4 -6 -1 -6 -11z"/>
<path d="M2415 4190 c-3 -5 -1 -10 4 -10 6 0 11 5 11 10 0 6 -2 10 -4 10 -3 0
-8 -4 -11 -10z"/>
<path d="M2468 4193 c7 -3 16 -2 19 1 4 3 -2 6 -13 5 -11 0 -14 -3 -6 -6z"/>
<path d="M2647 4183 c11 -10 18 -23 16 -30 -2 -6 1 -14 6 -18 7 -4 8 0 4 11
-4 12 -3 15 5 10 21 -13 13 5 -10 25 -29 23 -48 25 -21 2z"/>
<path d="M3386 4185 c10 -8 23 -15 28 -15 6 0 1 7 -10 15 -10 8 -23 15 -28 15
-6 0 -1 -7 10 -15z"/>
<path d="M2380 4179 c0 -5 5 -7 10 -4 6 3 10 8 10 11 0 2 -4 4 -10 4 -5 0 -10
-5 -10 -11z"/>
<path d="M2500 4179 c0 -5 5 -7 10 -4 6 3 10 8 10 11 0 2 -4 4 -10 4 -5 0 -10
-5 -10 -11z"/>
<path d="M3192 4183 c6 -9 -28 -44 -39 -40 -4 1 -9 -7 -10 -18 l-3 -20 9 20
c5 11 10 16 10 11 1 -6 11 1 23 14 13 14 23 19 26 12 2 -7 8 -12 13 -12 16 0
10 15 -12 28 -12 8 -19 10 -17 5z"/>
<path d="M2328 4155 c-3 -13 -2 -22 2 -20 11 7 20 45 10 45 -4 0 -10 -11 -12
-25z"/>
<path d="M2357 4160 c-3 -11 -1 -20 4 -20 5 0 9 9 9 20 0 11 -2 20 -4 20 -2 0
-6 -9 -9 -20z"/>
<path d="M2450 4160 c0 -11 -5 -19 -12 -17 -6 1 -13 -7 -15 -18 -3 -18 -2 -18
5 -2 4 10 12 18 17 17 5 -1 12 8 17 19 4 12 3 21 -2 21 -6 0 -10 -9 -10 -20z"/>
<path d="M2477 4160 c-3 -11 -1 -20 4 -20 5 0 9 9 9 20 0 11 -2 20 -4 20 -2 0
-6 -9 -9 -20z"/>
<path d="M2280 4160 c0 -5 5 -10 10 -10 6 0 10 5 10 10 0 6 -4 10 -10 10 -5 0
-10 -4 -10 -10z"/>
<path d="M2400 4160 c0 -5 5 -10 10 -10 6 0 10 5 10 10 0 6 -4 10 -10 10 -5 0
-10 -4 -10 -10z"/>
<path d="M2520 4160 c0 -5 5 -10 10 -10 6 0 10 5 10 10 0 6 -4 10 -10 10 -5 0
-10 -4 -10 -10z"/>
<path d="M2193 4120 c-17 -16 -33 -27 -36 -24 -2 3 -7 -2 -10 -10 -4 -11 -1
-13 11 -9 9 4 0 -10 -20 -30 -21 -20 -38 -41 -38 -46 0 -6 10 0 23 12 13 12
22 24 20 26 -4 6 49 41 62 41 6 0 -12 -20 -39 -45 -26 -25 -44 -45 -39 -45 5
0 30 20 55 45 33 32 52 43 65 39 14 -5 15 -4 4 4 -8 6 -21 7 -30 4 -14 -5 -14
-4 -2 11 10 13 17 15 27 6 10 -8 14 -8 14 0 0 6 -5 11 -11 11 -5 0 -7 6 -3 13
8 12 -17 -5 -44 -30 -7 -7 -19 -13 -25 -13 -7 0 3 14 21 31 19 17 32 32 30 34
-2 2 -18 -9 -35 -25z"/>
<path d="M2260 4140 c0 -5 5 -10 11 -10 5 0 7 5 4 10 -3 6 -8 10 -11 10 -2 0
-4 -4 -4 -10z"/>
<path d="M2537 4130 c-9 -11 -13 -20 -7 -20 5 0 14 8 20 18 10 16 10 16 20 0
6 -10 15 -18 20 -18 6 0 2 9 -7 20 -10 11 -20 20 -23 20 -3 0 -13 -9 -23 -20z"/>
<path d="M2725 4140 c-3 -5 -1 -10 4 -10 6 0 11 5 11 10 0 6 -2 10 -4 10 -3 0
-8 -4 -11 -10z"/>
<path d="M2845 4140 c-3 -5 -1 -10 4 -10 6 0 11 5 11 10 0 6 -2 10 -4 10 -3 0
-8 -4 -11 -10z"/>
<path d="M2965 4140 c-3 -5 -1 -10 4 -10 6 0 11 5 11 10 0 6 -2 10 -4 10 -3 0
-8 -4 -11 -10z"/>
<path d="M2295 4131 c3 -5 -3 -12 -12 -14 -10 -3 -6 -4 8 -4 18 1 25 6 22 14
-3 7 -9 13 -15 13 -5 0 -7 -4 -3 -9z"/>
<path d="M2375 4130 c-3 -5 -3 -10 2 -11 4 0 -1 -5 -12 -10 -19 -8 -19 -9 -1
-6 11 1 18 6 17 12 -1 5 6 12 16 16 16 7 16 8 1 8 -9 1 -20 -3 -23 -9z"/>
<path d="M2495 4130 c-3 -5 -3 -10 2 -10 4 -1 -5 -8 -20 -16 -15 -8 -25 -19
-22 -23 3 -5 -2 -11 -10 -15 -8 -3 -15 -10 -15 -16 0 -7 5 -7 13 2 7 7 13 17
13 21 -1 5 9 14 21 20 12 7 22 16 22 22 0 5 8 12 18 16 16 7 16 8 1 8 -9 1
-20 -3 -23 -9z"/>
<path d="M2603 4132 c10 -4 18 -12 18 -17 0 -6 10 -15 22 -22 12 -6 20 -13 17
-15 -3 -3 3 -12 13 -22 9 -10 17 -12 17 -6 0 6 -7 13 -15 16 -8 4 -13 10 -10
15 3 4 -6 14 -19 21 -14 7 -25 18 -25 23 0 6 -8 11 -18 12 -17 3 -17 2 0 -5z"/>
<path d="M2690 4125 c0 -8 2 -15 4 -15 2 0 6 7 10 15 3 8 1 15 -4 15 -6 0 -10
-7 -10 -15z"/>
<path d="M2810 4131 c0 -5 -15 -8 -32 -6 -18 2 -25 1 -15 -1 9 -3 15 -10 12
-15 -4 -5 -1 -9 4 -9 6 0 11 4 11 9 0 5 15 8 33 6 17 -2 24 -1 14 1 -9 3 -15
10 -12 15 4 5 1 9 -4 9 -6 0 -11 -4 -11 -9z"/>
<path d="M2930 4129 c0 -5 5 -7 10 -4 6 3 10 8 10 11 0 2 -4 4 -10 4 -5 0 -10
-5 -10 -11z"/>
<path d="M3095 4130 c-3 -5 -3 -10 2 -11 4 0 -1 -5 -12 -10 -19 -8 -19 -9 -1
-6 11 1 18 6 17 12 -1 5 6 12 16 16 16 7 16 8 1 8 -9 1 -20 -3 -23 -9z"/>
<path d="M2330 4110 c-6 -11 -9 -20 -8 -20 2 0 11 9 21 20 9 11 13 20 7 20 -5
0 -14 -9 -20 -20z"/>
<path d="M2460 4119 c0 -5 5 -7 10 -4 6 3 10 8 10 11 0 2 -4 4 -10 4 -5 0 -10
-5 -10 -11z"/>
<path d="M2645 4120 c3 -5 8 -10 11 -10 2 0 4 5 4 10 0 6 -5 10 -11 10 -5 0
-7 -4 -4 -10z"/>
<path d="M2878 4123 c7 -3 16 -2 19 1 4 3 -2 6 -13 5 -11 0 -14 -3 -6 -6z"/>
<path d="M2916 4107 c1 -10 -9 -30 -22 -46 -33 -39 -30 -46 5 -13 15 15 26 30
24 35 -2 4 1 7 6 7 6 0 11 5 11 11 0 5 -4 8 -9 4 -5 -3 -11 0 -14 7 -2 7 -3 5
-1 -5z"/>
<path d="M3044 4103 c-26 -41 -131 -143 -146 -143 -7 0 7 18 30 40 24 22 40
40 35 40 -5 0 -26 -16 -47 -36 -27 -25 -35 -39 -28 -46 19 -19 87 37 151 122
14 19 30 38 36 42 6 5 6 8 -1 8 -7 0 -20 -12 -30 -27z"/>
<path d="M2396 4105 c-9 -26 -7 -32 5 -12 6 10 9 21 6 23 -2 3 -7 -2 -11 -11z"/>
<path d="M2432 4104 c-7 -7 -12 -17 -11 -21 0 -4 -8 -11 -18 -15 -17 -7 -17
-8 0 -5 10 1 18 6 17 10 -1 5 7 15 17 22 10 7 16 16 13 18 -3 3 -11 -1 -18 -9z"/>
<path d="M2670 4111 c0 -10 19 -25 25 -20 1 2 -3 10 -11 17 -8 7 -14 8 -14 3z"/>
<path d="M2713 4100 c1 -11 5 -20 9 -20 3 0 6 9 5 20 -1 11 -5 20 -9 20 -3 0
-6 -9 -5 -20z"/>
<path d="M2954 4104 c6 -16 -50 -81 -88 -101 -16 -9 -17 -11 -2 -16 10 -4 15
-3 11 3 -3 6 -2 10 3 10 18 0 91 81 89 100 -1 11 -5 20 -10 20 -5 0 -6 -7 -3
-16z"/>
<path d="M3115 4101 c-4 -14 -12 -18 -29 -15 -18 3 -28 -3 -41 -24 -10 -15
-40 -48 -66 -74 -27 -27 -44 -48 -39 -48 13 0 86 76 108 113 9 15 20 27 25 27
4 0 5 -4 2 -10 -3 -5 -1 -10 4 -10 6 0 11 5 11 11 0 5 4 8 9 4 10 -6 36 33 28
42 -3 2 -8 -4 -12 -16z"/>
<path d="M3152 4104 c-7 -7 -13 -17 -13 -21 0 -5 -9 -12 -19 -18 -10 -5 -19
-14 -19 -20 0 -5 -8 -13 -18 -17 -17 -7 -17 -8 0 -5 10 1 17 6 15 10 -2 5 8
15 22 22 14 7 24 16 22 20 -2 4 5 13 15 20 10 7 16 16 13 18 -3 3 -11 -1 -18
-9z"/>
<path d="M2544 4095 c-4 -8 -10 -15 -16 -15 -5 0 -6 5 -3 10 3 6 1 10 -4 10
-6 0 -11 -5 -11 -11 0 -5 -4 -8 -9 -4 -10 6 -36 -33 -28 -42 3 -2 8 4 12 16 4
14 12 18 30 15 16 -3 28 2 34 13 11 17 11 17 22 0 6 -11 18 -16 34 -13 18 3
26 -1 30 -15 4 -12 9 -18 12 -16 8 9 -18 48 -28 42 -5 -4 -9 -1 -9 4 0 6 -5
11 -11 11 -5 0 -7 -4 -4 -10 3 -5 2 -10 -3 -10 -6 0 -12 7 -16 15 -3 8 -10 15
-16 15 -6 0 -13 -7 -16 -15z"/>
<path d="M2740 4099 c0 -5 5 -7 10 -4 6 3 10 8 10 11 0 2 -4 4 -10 4 -5 0 -10
-5 -10 -11z"/>
<path d="M2860 4102 c0 -4 9 -8 20 -9 11 -1 20 2 20 5 0 4 -9 8 -20 9 -11 1
-20 -2 -20 -5z"/>
<path d="M2980 4099 c0 -5 5 -7 10 -4 6 3 10 8 10 11 0 2 -4 4 -10 4 -5 0 -10
-5 -10 -11z"/>
<path d="M2271 4084 c0 -11 3 -14 6 -6 3 7 2 16 -1 19 -3 4 -6 -2 -5 -13z"/>
<path d="M2293 4080 c-1 -11 2 -20 5 -20 4 0 8 9 9 20 1 11 -2 20 -5 20 -4 0
-8 -9 -9 -20z"/>
<path d="M2813 4080 c1 -11 5 -20 9 -20 3 0 6 9 5 20 -1 11 -5 20 -9 20 -3 0
-6 -9 -5 -20z"/>
<path d="M2841 4084 c0 -11 3 -14 6 -6 3 7 2 16 -1 19 -3 4 -6 -2 -5 -13z"/>
<path d="M2330 4080 c-12 -7 -10 -9 8 -7 12 0 22 5 22 9 0 11 -12 10 -30 -2z"/>
<path d="M2371 4074 c0 -11 3 -14 6 -6 3 7 2 16 -1 19 -3 4 -6 -2 -5 -13z"/>
<path d="M2760 4082 c0 -4 9 -8 20 -9 11 -1 20 2 20 5 0 4 -9 8 -20 9 -11 1
-20 -2 -20 -5z"/>
<path d="M2995 4079 c-11 -16 -1 -19 13 -3 7 8 8 14 3 14 -5 0 -13 -5 -16 -11z"/>
<path d="M2697 4069 c7 -7 15 -10 18 -7 3 3 -2 9 -12 12 -14 6 -15 5 -6 -5z"/>
<path d="M2735 4070 c-3 -5 -1 -10 4 -10 6 0 11 5 11 10 0 6 -2 10 -4 10 -3 0
-8 -4 -11 -10z"/>
<path d="M2868 4073 c7 -3 16 -2 19 1 4 3 -2 6 -13 5 -11 0 -14 -3 -6 -6z"/>
<path d="M2537 4050 c-9 -11 -13 -20 -7 -20 5 0 14 8 20 18 10 16 10 16 20 0
6 -10 15 -18 20 -18 6 0 2 9 -7 20 -10 11 -20 20 -23 20 -3 0 -13 -9 -23 -20z"/>
<path d="M2965 4060 c-3 -5 -1 -10 4 -10 6 0 11 5 11 10 0 6 -2 10 -4 10 -3 0
-8 -4 -11 -10z"/>
<path d="M2175 4005 c-31 -30 -52 -55 -46 -55 5 0 15 8 20 18 6 9 11 14 11 10
0 -7 27 18 64 60 36 41 8 22 -49 -33z"/>
<path d="M2255 4050 c3 -5 8 -10 11 -10 2 0 4 5 4 10 0 6 -5 10 -11 10 -5 0
-7 -4 -4 -10z"/>
<path d="M2335 4050 c3 -5 8 -10 11 -10 2 0 4 5 4 10 0 6 -5 10 -11 10 -5 0
-7 -4 -4 -10z"/>
<path d="M2495 4050 c-3 -5 -3 -10 2 -11 4 0 -1 -5 -12 -10 -19 -8 -19 -9 -1
-6 11 1 18 6 17 12 -1 5 6 12 16 16 16 7 16 8 1 8 -9 1 -20 -3 -23 -9z"/>
<path d="M2603 4052 c10 -4 18 -12 17 -17 0 -6 7 -11 17 -12 17 -3 17 -2 0 5
-10 4 -18 12 -17 17 0 6 -7 11 -17 12 -17 3 -17 2 0 -5z"/>
<path d="M2770 4049 c0 -5 5 -7 10 -4 6 3 10 8 10 11 0 2 -4 4 -10 4 -5 0 -10
-5 -10 -11z"/>
<path d="M2850 4049 c0 -5 5 -7 10 -4 6 3 10 8 10 11 0 2 -4 4 -10 4 -5 0 -10
-5 -10 -11z"/>
<path d="M2280 4034 c0 -8 -4 -12 -10 -9 -5 3 -10 2 -10 -3 0 -23 26 -18 28 4
1 13 0 24 -3 24 -3 0 -5 -7 -5 -16z"/>
<path d="M2310 4043 c5 -2 10 -9 10 -14 0 -6 -4 -7 -10 -4 -5 3 -10 2 -10 -3
0 -6 6 -12 14 -15 9 -4 13 2 12 16 -1 11 -7 22 -14 23 -7 1 -8 0 -2 -3z"/>
<path d="M2360 4034 c0 -8 -4 -12 -10 -9 -5 3 -10 1 -10 -4 0 -6 4 -11 9 -11
5 0 8 -15 6 -32 -2 -18 -1 -25 1 -15 3 9 10 15 15 12 5 -4 9 -1 9 4 0 6 -4 11
-9 11 -5 0 -7 14 -5 30 3 17 3 30 0 30 -3 0 -6 -7 -6 -16z"/>
<path d="M2390 4040 c18 -12 30 -13 30 -2 0 4 -10 9 -22 9 -18 2 -20 0 -8 -7z"/>
<path d="M2450 4036 c0 -9 -4 -15 -9 -11 -6 3 -13 -1 -18 -8 -4 -8 -15 -17
-23 -20 -12 -4 -11 -6 3 -6 10 -1 20 6 23 14 4 8 10 12 15 9 11 -6 24 24 15
33 -3 4 -6 -1 -6 -11z"/>
<path d="M2663 4037 c1 -10 5 -18 10 -18 10 1 45 -33 41 -40 -2 -3 3 -6 11 -6
8 0 15 4 15 9 0 4 -4 8 -10 8 -5 0 -18 10 -30 22 -11 12 -20 18 -21 12 0 -5
-5 0 -10 11 -7 17 -8 17 -6 2z"/>
<path d="M2700 4038 c0 -11 12 -10 30 2 12 7 10 9 -8 7 -12 0 -22 -5 -22 -9z"/>
<path d="M2754 4000 c0 -30 1 -47 4 -37 2 9 8 15 13 12 5 -4 9 -2 9 4 0 5 -6
12 -12 15 -10 5 -10 7 0 12 6 3 12 10 12 15 0 6 -4 8 -9 4 -5 -3 -11 3 -13 12
-3 10 -4 -7 -4 -37z"/>
<path d="M2799 4048 c-1 -2 -3 -15 -5 -31 -2 -24 -1 -25 12 -13 16 17 19 30 4
21 -5 -3 -10 -2 -10 4 0 5 6 12 13 14 10 4 10 6 0 6 -7 1 -14 0 -14 -1z"/>
<path d="M2833 4029 c1 -18 6 -25 14 -22 7 3 13 9 13 15 0 5 -4 7 -9 3 -5 -3
-12 3 -14 12 -3 10 -4 6 -4 -8z"/>
<path d="M3050 4031 c-5 -11 -16 -26 -22 -33 -7 -8 -21 -23 -32 -35 -18 -22
-18 -22 0 -19 43 9 49 12 66 33 21 25 22 33 6 33 -6 0 -8 -3 -5 -6 7 -8 -31
-44 -45 -44 -9 0 39 69 57 82 6 5 5 8 -2 8 -7 0 -17 -9 -23 -19z"/>
<path d="M3125 4040 c-3 -5 -1 -10 4 -10 6 0 11 5 11 10 0 6 -2 10 -4 10 -3 0
-8 -4 -11 -10z"/>
<path d="M3170 4036 c0 -9 -4 -15 -9 -11 -6 3 -15 -3 -20 -14 -14 -25 -14 -31
-1 -31 6 0 9 3 9 8 -3 19 2 33 11 27 11 -7 26 22 16 32 -3 4 -6 -1 -6 -11z"/>
<path d="M3560 4044 c9 -3 21 -14 28 -25 12 -19 11 -20 -10 -14 -13 4 -20 4
-16 0 4 -4 19 -9 32 -10 l25 -3 -21 29 c-12 16 -29 28 -37 28 -14 -1 -14 -2
-1 -5z"/>
<path d="M2080 4025 c-7 -9 -8 -15 -2 -15 5 0 12 7 16 15 3 8 4 15 2 15 -2 0
-9 -7 -16 -15z"/>
<path d="M2192 3982 c-30 -31 -57 -63 -61 -70 -5 -8 -12 -12 -17 -10 -5 1 -10
-6 -11 -17 -3 -18 -2 -18 5 -2 4 10 11 17 16 15 4 -2 14 8 21 22 8 14 14 22
15 18 0 -3 17 11 38 33 22 21 41 37 43 34 3 -2 5 5 6 15 1 11 1 20 0 19 -1 0
-26 -26 -55 -57z"/>
<path d="M3538 4028 c5 -5 16 -8 23 -6 8 3 3 7 -10 11 -17 4 -21 3 -13 -5z"/>
<path d="M2380 4020 c0 -6 7 -10 15 -10 8 0 15 2 15 4 0 2 -7 6 -15 10 -8 3
-15 1 -15 -4z"/>
<path d="M2544 4016 c-3 -9 -10 -16 -16 -16 -5 0 -6 5 -3 10 3 6 1 10 -4 10
-6 0 -11 -4 -11 -9 0 -5 -11 -8 -24 -5 -16 3 -28 -2 -34 -12 -5 -9 -13 -14
-18 -12 -5 1 -10 -6 -11 -17 -1 -16 -1 -16 3 -2 3 9 10 15 15 11 5 -3 12 2 15
10 3 9 10 16 16 16 5 0 6 -4 3 -10 -3 -5 -1 -10 4 -10 6 0 11 4 11 9 0 5 11 8
25 5 17 -3 27 1 31 11 6 15 24 21 24 7 0 -4 -11 -20 -25 -35 -14 -15 -21 -27
-16 -27 6 0 15 10 22 22 11 21 12 20 46 -15 19 -21 38 -37 43 -37 5 0 -7 17
-28 38 -20 20 -37 43 -37 51 0 20 -24 26 -31 7z"/>
<path d="M2720 4020 c-13 -8 -12 -10 3 -10 9 0 17 5 17 10 0 12 -1 12 -20 0z"/>
<path d="M2599 4003 c19 -32 51 -68 51 -57 0 5 -9 20 -20 32 -11 12 -20 26
-20 32 0 5 -5 10 -10 10 -7 0 -7 -6 -1 -17z"/>
<path d="M3110 4010 c0 -6 -14 -24 -30 -42 -17 -17 -28 -33 -26 -36 3 -2 18
10 33 28 37 44 46 60 33 60 -5 0 -10 -5 -10 -10z"/>
<path d="M2640 4000 c0 -5 5 -10 10 -10 6 0 10 5 10 10 0 6 -4 10 -10 10 -5 0
-10 -4 -10 -10z"/>
<path d="M3543 3997 c1 -10 6 -17 12 -17 5 1 13 -7 17 -17 7 -17 8 -17 5 0 -1
10 -6 17 -12 17 -5 -1 -13 7 -17 17 -7 17 -8 17 -5 0z"/>
<path d="M2060 3970 c-13 -16 -28 -26 -33 -23 -6 3 -7 1 -3 -5 3 -6 -3 -17
-14 -25 -11 -7 -17 -17 -13 -20 3 -4 0 -7 -7 -7 -7 0 -11 -3 -7 -6 3 -3 23 12
45 35 21 23 36 41 34 41 -3 0 3 6 14 14 10 8 17 17 14 20 -3 3 -17 -8 -30 -24z"/>
<path d="M2240 3983 c-35 -25 -85 -77 -82 -85 1 -5 -2 -8 -8 -8 -5 0 -10 -5
-10 -11 0 -5 5 -7 10 -4 17 11 11 -7 -7 -21 -17 -13 -17 -15 0 -28 18 -14 24
-32 7 -21 -5 3 -10 1 -10 -4 0 -6 5 -11 11 -11 5 0 8 -4 4 -9 -6 -10 33 -36
42 -28 2 3 -4 8 -16 12 -14 4 -18 12 -15 30 3 16 -2 28 -13 34 -17 11 -17 11
0 22 11 7 16 18 13 35 -3 13 -2 24 2 24 8 0 108 90 101 90 -3 0 -16 -8 -29
-17z"/>
<path d="M2284 3986 c-10 -8 -17 -16 -14 -19 3 -2 14 4 24 14 23 22 18 25 -10
5z"/>
<path d="M2678 3988 c8 -9 11 -22 8 -27 -4 -5 -3 -12 2 -15 16 -10 10 33 -6
46 -15 12 -16 11 -4 -4z"/>
<path d="M2810 3998 c0 -2 9 -11 20 -21 11 -9 20 -13 20 -7 0 5 -9 14 -20 20
-11 6 -20 9 -20 8z"/>
<path d="M2316 3981 c-3 -4 -4 -18 -1 -29 2 -14 -3 -23 -16 -27 -11 -4 -18 -9
-16 -12 8 -8 48 17 42 27 -3 4 1 11 7 13 10 4 10 6 1 6 -7 1 -13 6 -13 12 0 5
5 7 10 4 6 -3 10 -1 10 4 0 13 -17 15 -24 2z"/>
<path d="M3182 3974 c-16 -13 -16 -14 0 -8 13 4 36 -12 80 -56 35 -34 62 -66
61 -70 -1 -4 31 -41 71 -82 40 -40 75 -80 79 -88 4 -13 6 -12 6 1 1 9 -32 49
-71 90 -40 41 -74 80 -75 86 -2 7 -32 41 -68 76 -58 57 -67 63 -83 51z"/>
<path d="M2095 3970 c-3 -5 -3 -10 2 -10 4 0 -4 -8 -17 -17 -14 -9 -38 -32
-54 -50 -15 -18 -32 -30 -37 -27 -5 3 -9 0 -9 -5 0 -6 4 -11 8 -11 11 0 125
110 115 111 -4 0 1 4 12 9 16 7 17 9 3 9 -9 1 -20 -3 -23 -9z"/>
<path d="M2390 3973 c0 -5 5 -15 10 -23 7 -12 9 -10 7 8 -1 19 -17 33 -17 15z"/>
<path d="M2475 3948 l-30 -32 32 19 c18 10 30 22 27 26 -2 4 4 10 13 12 12 3
13 5 3 5 -8 1 -28 -13 -45 -30z"/>
<path d="M2655 3970 c3 -5 8 -10 11 -10 2 0 4 5 4 10 0 6 -5 10 -11 10 -5 0
-7 -4 -4 -10z"/>
<path d="M2790 3970 c0 -5 5 -10 10 -10 6 0 10 5 10 10 0 6 -4 10 -10 10 -5 0
-10 -4 -10 -10z"/>
<path d="M3590 3976 c0 -2 9 -6 20 -9 11 -3 18 -1 14 4 -5 9 -34 13 -34 5z"/>
<path d="M2245 3960 c-3 -5 -1 -10 4 -10 6 0 11 5 11 10 0 6 -2 10 -4 10 -3 0
-8 -4 -11 -10z"/>
<path d="M2290 3957 c0 -9 -5 -16 -12 -14 -6 1 -13 -6 -14 -16 -1 -12 0 -13 3
-2 2 8 9 13 14 9 11 -6 25 24 15 33 -3 4 -6 -1 -6 -10z"/>
<path d="M2460 3959 c0 -5 5 -7 10 -4 6 3 10 8 10 11 0 2 -4 4 -10 4 -5 0 -10
-5 -10 -11z"/>
<path d="M3105 3956 c-26 -29 -39 -49 -28 -43 6 4 13 4 16 0 2 -5 3 -3 1 4 -1
6 6 19 17 29 11 10 19 12 19 6 0 -7 5 -12 11 -12 5 0 8 4 5 9 -4 5 0 11 6 14
7 2 2 4 -12 4 -14 0 -30 -5 -35 -11z"/>
<path d="M3457 3905 l-64 -66 57 -57 c31 -31 65 -69 75 -84 13 -21 23 -27 41
-24 13 3 24 0 24 -5 0 -5 5 -9 11 -9 5 0 7 5 4 10 -3 6 -2 10 3 10 6 0 13 -7
16 -16 3 -8 10 -13 15 -10 5 4 12 -2 15 -11 4 -14 4 -14 3 2 -1 11 -6 18 -11
17 -5 -2 -13 3 -18 12 -6 10 -18 15 -34 12 -13 -3 -24 0 -24 5 0 5 -5 9 -11 9
-5 0 -7 -4 -4 -10 3 -5 2 -10 -2 -10 -5 0 -16 12 -25 28 -10 15 -40 51 -68 80
l-51 53 57 57 c31 31 60 56 65 55 5 -2 9 2 9 7 0 22 -21 7 -83 -55z"/>
<path d="M2370 3950 c0 -5 5 -10 11 -10 5 0 7 5 4 10 -3 6 -8 10 -11 10 -2 0
-4 -4 -4 -10z"/>
<path d="M2425 3938 l-20 -21 23 12 c12 6 22 16 22 21 0 13 -2 12 -25 -12z"/>
<path d="M2710 3950 c0 -5 7 -7 15 -4 8 4 15 8 15 10 0 2 -7 4 -15 4 -8 0 -15
-4 -15 -10z"/>
<path d="M3550 3953 c0 -7 10 -17 21 -24 21 -11 21 -12 -19 -51 -40 -38 -41
-40 -26 -64 9 -13 20 -24 26 -24 5 0 0 10 -12 22 l-20 22 44 43 c40 39 58 83
33 83 -5 0 -5 -10 -1 -22 6 -21 6 -22 -12 -8 -10 8 -22 20 -26 25 -5 6 -8 5
-8 -2z"/>
<path d="M3633 3953 c-7 -2 -13 -9 -13 -15 0 -6 6 -6 15 2 8 6 20 8 26 4 8 -4
9 -3 5 4 -8 13 -13 14 -33 5z"/>
<path d="M3165 3940 c3 -5 8 -10 11 -10 2 0 4 5 4 10 0 6 -5 10 -11 10 -5 0
-7 -4 -4 -10z"/>
<path d="M2110 3929 c0 -5 5 -7 10 -4 6 3 10 8 10 11 0 2 -4 4 -10 4 -5 0 -10
-5 -10 -11z"/>
<path d="M2223 3933 c-7 -2 -13 -11 -13 -19 0 -8 -5 -13 -12 -11 -6 1 -13 -7
-15 -18 -3 -18 -2 -18 5 -2 4 10 11 18 15 18 4 -1 16 8 27 19 20 20 17 23 -7
13z"/>
<path d="M2336 3924 c-8 -20 -8 -24 2 -24 4 0 8 9 9 20 2 24 -3 26 -11 4z"/>
<path d="M3190 3929 c0 -5 3 -8 8 -6 8 6 93 -77 93 -90 0 -4 21 -31 47 -58 27
-28 47 -56 46 -63 -1 -7 0 -8 3 -2 3 7 12 5 24 -6 10 -9 16 -21 13 -25 -3 -5
0 -9 5 -9 22 0 9 19 -65 93 -41 43 -71 77 -65 77 5 0 -13 23 -41 50 -50 50
-68 60 -68 39z"/>
<path d="M3485 3894 c-22 -24 -41 -48 -43 -52 -1 -4 13 -24 32 -44 19 -20 42
-48 51 -62 10 -14 22 -26 29 -26 7 0 7 3 1 8 -6 4 -22 23 -37 42 -14 19 -36
46 -48 59 l-23 23 41 38 c23 20 39 40 35 44 -3 3 -1 6 5 6 26 0 19 -20 -17
-53 -37 -34 -38 -36 -22 -54 10 -10 26 -31 35 -46 14 -20 25 -26 42 -23 17 3
25 -1 29 -15 4 -12 9 -18 12 -16 8 9 -18 48 -28 42 -5 -4 -9 -1 -9 4 0 6 -5
11 -11 11 -5 0 -7 -4 -4 -10 3 -5 3 -10 -2 -10 -4 1 -21 19 -36 41 l-28 41 39
37 c37 35 38 39 21 49 -10 7 -20 12 -21 11 -2 0 -21 -20 -43 -45z"/>
<path d="M2066 3896 c-14 -19 -40 -43 -56 -53 -17 -9 -30 -21 -30 -26 0 -4 5
-5 10 -2 6 3 10 2 10 -4 0 -5 -5 -12 -10 -14 -6 -3 -5 -4 2 -3 7 2 13 10 13
19 0 8 14 26 30 38 42 33 58 49 48 49 -4 0 -1 4 7 10 8 5 12 12 9 15 -4 3 -18
-10 -33 -29z"/>
<path d="M2361 3914 c0 -11 3 -14 6 -6 3 7 2 16 -1 19 -3 4 -6 -2 -5 -13z"/>
<path d="M3114 3914 c1 -7 4 -15 7 -16 2 -2 3 -1 1 1 -1 3 7 10 19 17 22 11
22 12 -3 12 -16 0 -25 -6 -24 -14z"/>
<path d="M2235 3910 c-3 -5 -1 -10 4 -10 6 0 11 5 11 10 0 6 -2 10 -4 10 -3 0
-8 -4 -11 -10z"/>
<path d="M2433 3891 c0 -14 1 -18 4 -8 2 9 9 15 14 12 5 -4 9 -2 9 3 0 6 -6
12 -13 15 -8 3 -13 -4 -14 -22z"/>
<path d="M3170 3910 c0 -5 5 -10 11 -10 5 0 7 5 4 10 -3 6 -8 10 -11 10 -2 0
-4 -4 -4 -10z"/>
<path d="M2297 3890 c-9 -11 -13 -20 -7 -20 5 0 14 9 20 20 6 11 9 20 8 20 -2
0 -11 -9 -21 -20z"/>
<path d="M2380 3898 c0 -3 9 -6 20 -5 11 1 20 5 20 9 0 3 -9 6 -20 5 -11 -1
-20 -5 -20 -9z"/>
<path d="M3145 3899 c-4 -6 -5 -12 -2 -15 2 -3 7 2 10 11 7 17 1 20 -8 4z"/>
<path d="M3605 3900 c-3 -5 -1 -10 4 -10 6 0 11 5 11 10 0 6 -2 10 -4 10 -3 0
-8 -4 -11 -10z"/>
<path d="M3686 3896 c4 -12 -1 -14 -20 -10 -20 3 -33 -2 -51 -23 -26 -30 -31
-43 -15 -43 6 0 9 3 8 8 -3 9 34 52 45 52 4 0 5 -4 2 -10 -3 -5 -1 -10 4 -10
6 0 11 4 11 9 0 5 11 8 25 5 24 -4 25 -4 8 16 -21 24 -24 25 -17 6z"/>
<path d="M2255 3890 c-3 -5 -3 -10 2 -10 4 -1 -4 -8 -19 -16 -16 -8 -28 -19
-28 -25 0 -14 33 -25 37 -12 3 7 15 10 28 7 18 -3 27 2 35 18 10 21 10 21 -3
6 -15 -19 -32 -25 -22 -8 3 6 1 10 -4 10 -6 0 -11 -5 -11 -11 0 -5 -4 -8 -9
-4 -5 3 -12 1 -16 -5 -7 -12 -25 -13 -25 -2 0 5 12 14 26 20 14 7 23 16 19 21
-3 5 3 12 12 14 16 4 16 5 1 6 -9 0 -20 -3 -23 -9z"/>
<path d="M3190 3889 c-13 -9 -13 -10 1 -6 16 5 66 -40 61 -55 -1 -5 3 -8 8 -8
18 0 11 16 -20 49 -35 36 -31 34 -50 20z"/>
<path d="M2220 3879 c0 -5 5 -7 10 -4 6 3 10 8 10 11 0 2 -4 4 -10 4 -5 0 -10
-5 -10 -11z"/>
<path d="M2327 3873 c3 -7 9 -13 15 -13 5 0 7 4 3 9 -3 5 3 12 12 14 10 3 6 4
-8 4 -18 -1 -25 -6 -22 -14z"/>
<path d="M2080 3872 c0 -6 -13 -19 -30 -29 -16 -9 -30 -21 -30 -26 0 -4 4 -6
9 -2 5 3 12 -3 15 -12 3 -13 4 -12 3 3 -1 13 9 30 23 42 14 11 22 24 18 28 -5
4 -8 2 -8 -4z"/>
<path d="M2106 3859 c-19 -19 -19 -19 2 -39 12 -12 22 -16 22 -11 0 6 -8 14
-17 20 -17 9 -17 11 2 25 11 8 18 16 15 19 -3 2 -14 -4 -24 -14z"/>
<path d="M2186 3859 c-19 -19 -19 -19 2 -39 12 -12 22 -16 22 -11 0 6 -8 14
-17 20 -17 9 -17 11 2 25 11 8 18 16 15 19 -3 2 -14 -4 -24 -14z"/>
<path d="M2398 3873 c7 -3 16 -2 19 1 4 3 -2 6 -13 5 -11 0 -14 -3 -6 -6z"/>
<path d="M2450 3870 c0 -5 5 -10 11 -10 5 0 7 5 4 10 -3 6 -8 10 -11 10 -2 0
-4 -4 -4 -10z"/>
<path d="M3565 3855 c-26 -22 -27 -24 -8 -22 12 0 20 3 18 6 -3 2 5 12 17 22
31 28 8 22 -27 -6z"/>
<path d="M2365 3860 c3 -5 8 -10 11 -10 2 0 4 5 4 10 0 6 -5 10 -11 10 -5 0
-7 -4 -4 -10z"/>
<path d="M3200 3861 c0 -6 4 -13 10 -16 6 -3 7 1 4 9 -7 18 -14 21 -14 7z"/>
<path d="M2390 3840 c0 -11 4 -20 9 -20 5 0 7 9 4 20 -3 11 -7 20 -9 20 -2 0
-4 -9 -4 -20z"/>
<path d="M3690 3849 c0 -5 5 -7 10 -4 6 3 10 8 10 11 0 2 -4 4 -10 4 -5 0 -10
-5 -10 -11z"/>
<path d="M2340 3840 c0 -5 5 -10 10 -10 6 0 10 5 10 10 0 6 -4 10 -10 10 -5 0
-10 -4 -10 -10z"/>
<path d="M3640 3842 c0 -4 9 -8 20 -9 11 -1 20 2 20 5 0 4 -9 8 -20 9 -11 1
-20 -2 -20 -5z"/>
<path d="M3620 3831 c0 -6 4 -13 10 -16 6 -3 7 1 4 9 -7 18 -14 21 -14 7z"/>
<path d="M2060 3820 c0 -6 5 -8 10 -5 6 3 10 2 10 -4 0 -5 -5 -11 -12 -13 -8
-3 -7 -6 4 -10 11 -5 15 0 14 15 -1 21 -26 38 -26 17z"/>
<path d="M2297 3810 c-9 -11 -13 -20 -7 -20 5 0 13 8 19 18 9 16 11 16 24 -2
7 -10 20 -16 28 -13 11 4 10 6 -2 6 -9 1 -19 8 -23 16 -7 20 -18 19 -39 -5z"/>
<path d="M3685 3820 c-3 -5 -1 -10 4 -10 6 0 11 5 11 10 0 6 -2 10 -4 10 -3 0
-8 -4 -11 -10z"/>
<path d="M2259 3813 c-1 -5 -1 -11 0 -15 2 -12 -14 -9 -27 4 -9 9 -12 9 -12 0
0 -7 5 -12 11 -12 5 0 7 -5 3 -11 -4 -8 0 -7 15 1 12 6 19 15 16 20 -3 5 3 11
12 13 17 4 17 5 1 6 -10 0 -19 -2 -19 -6z"/>
<path d="M2350 3816 c0 -2 9 -6 20 -9 11 -3 18 -1 14 4 -5 9 -34 13 -34 5z"/>
<path d="M3563 3812 c10 -4 18 -12 18 -17 0 -6 10 -15 22 -22 12 -6 20 -13 17
-15 -3 -3 3 -12 13 -22 9 -10 17 -12 17 -6 0 6 -7 13 -15 16 -8 4 -13 10 -10
15 3 4 -6 14 -19 21 -14 7 -25 18 -25 23 0 6 -8 11 -18 12 -17 3 -17 2 0 -5z"/>
<path d="M3650 3805 c0 -8 2 -15 4 -15 2 0 6 7 10 15 3 8 1 15 -4 15 -6 0 -10
-7 -10 -15z"/>
<path d="M3718 3785 c-33 -31 -67 -48 -54 -27 3 5 -4 16 -15 25 -10 9 -19 12
-19 7 0 -6 7 -13 15 -16 8 -4 13 -10 10 -14 -3 -5 2 -13 11 -18 16 -9 27 -1
78 56 29 33 16 26 -26 -13z"/>
<path d="M2103 3797 c1 -10 6 -17 10 -15 5 2 15 -10 23 -25 8 -15 19 -25 23
-22 5 3 11 -2 15 -10 3 -8 10 -15 16 -15 6 0 4 8 -6 18 -10 9 -19 15 -22 12
-2 -3 -9 5 -15 17 -7 12 -16 22 -22 22 -5 0 -13 8 -17 18 -7 17 -8 17 -5 0z"/>
<path d="M2183 3797 c1 -10 6 -17 12 -17 5 1 13 -7 17 -17 7 -17 8 -17 5 0 -1
10 -6 17 -12 17 -5 -1 -13 7 -17 17 -7 17 -8 17 -5 0z"/>
<path d="M3275 3800 c3 -5 8 -10 11 -10 2 0 4 5 4 10 0 6 -5 10 -11 10 -5 0
-7 -4 -4 -10z"/>
<path d="M3605 3800 c3 -5 8 -10 11 -10 2 0 4 5 4 10 0 6 -5 10 -11 10 -5 0
-7 -4 -4 -10z"/>
<path d="M2015 3790 c-3 -5 -1 -10 4 -10 6 0 11 5 11 10 0 6 -2 10 -4 10 -3 0
-8 -4 -11 -10z"/>
<path d="M3721 3750 c-27 -30 -38 -37 -48 -29 -9 8 -13 8 -13 0 0 -6 5 -11 11
-11 5 0 7 -6 3 -12 -11 -19 26 12 58 47 15 16 30 26 34 22 4 -4 -11 -25 -34
-47 l-40 -40 39 -38 c21 -22 39 -45 39 -53 0 -8 -18 5 -40 29 -22 23 -44 42
-49 42 -5 0 11 -20 36 -45 24 -25 49 -43 54 -39 18 11 8 35 -28 69 l-37 35 38
36 c23 22 35 41 32 51 -3 8 -6 17 -6 19 0 12 -19 -2 -49 -36z"/>
<path d="M1970 3767 c0 -15 -51 -63 -62 -59 -5 1 -8 -2 -8 -8 0 -16 13 -12 41
13 31 26 55 67 39 67 -5 0 -10 -6 -10 -13z"/>
<path d="M2050 3769 c0 -5 5 -7 10 -4 6 3 10 8 10 11 0 2 -4 4 -10 4 -5 0 -10
-5 -10 -11z"/>
<path d="M2273 3765 c4 -8 2 -17 -3 -20 -6 -4 -10 -14 -9 -23 0 -12 3 -10 10
7 9 23 10 23 30 5 16 -15 19 -15 14 -2 -4 9 -13 19 -21 22 -9 3 -12 10 -9 16
3 5 1 10 -5 10 -7 0 -10 -7 -7 -15z"/>
<path d="M2010 3760 c18 -12 30 -13 30 -2 0 4 -10 9 -22 9 -18 2 -20 0 -8 -7z"/>
<path d="M2079 3768 c-1 -2 -3 -13 -4 -25 -1 -15 2 -20 12 -16 8 3 13 0 11 -8
-2 -7 5 -14 15 -15 12 -1 13 0 2 3 -8 2 -13 9 -9 14 3 5 -2 12 -10 15 -9 3
-16 10 -16 16 0 5 5 6 10 3 6 -3 10 -1 10 4 0 9 -17 16 -21 9z"/>
<path d="M2240 3760 c-13 -8 -13 -11 -1 -22 8 -8 11 -8 7 -1 -3 6 0 13 6 16 7
2 11 7 8 10 -3 3 -12 2 -20 -3z"/>
<path d="M2110 3750 c0 -5 5 -10 11 -10 5 0 7 5 4 10 -3 6 -8 10 -11 10 -2 0
-4 -4 -4 -10z"/>
<path d="M1958 3708 c-32 -35 -39 -38 -58 -28 -12 7 15 -25 61 -70 46 -45 83
-86 82 -91 -2 -5 2 -9 7 -9 22 0 7 23 -57 84 l-67 65 39 40 c32 32 41 37 48
26 4 -8 12 -15 17 -15 6 0 2 9 -7 20 -10 11 -20 19 -23 19 -3 -1 -22 -19 -42
-41z"/>
<path d="M2040 3740 c-13 -8 -12 -10 3 -10 9 0 17 5 17 10 0 12 -1 12 -20 0z"/>
<path d="M2203 3732 c10 -4 18 -12 17 -17 0 -6 6 -11 14 -13 9 -2 16 1 16 7 0
6 -7 8 -15 4 -10 -3 -15 -1 -13 8 2 7 -6 14 -17 16 -18 3 -18 2 -2 -5z"/>
<path d="M3563 3732 c10 -4 18 -12 17 -17 0 -6 7 -11 17 -12 17 -3 17 -2 0 5
-10 4 -18 12 -17 17 0 6 -7 11 -17 12 -17 3 -17 2 0 -5z"/>
<path d="M3781 3724 c0 -11 3 -14 6 -6 3 7 2 16 -1 19 -3 4 -6 -2 -5 -13z"/>
<path d="M1876 3715 c-3 -8 -1 -15 4 -15 6 0 10 7 10 15 0 8 -2 15 -4 15 -2 0
-6 -7 -10 -15z"/>
<path d="M2134 3715 c8 -9 19 -16 23 -16 4 0 13 -9 18 -19 6 -10 14 -19 20
-19 5 0 13 -8 17 -18 7 -17 8 -17 5 0 -1 10 -6 17 -10 15 -5 -2 -15 10 -23 25
-8 15 -19 25 -23 22 -5 -3 -11 2 -15 10 -3 8 -10 15 -16 15 -7 0 -5 -7 4 -15z"/>
<path d="M3623 3717 c1 -10 6 -17 10 -15 5 2 13 -5 18 -14 6 -10 15 -18 20
-18 6 0 4 7 -5 15 -8 9 -19 15 -23 15 -4 -1 -11 7 -15 17 -7 17 -8 17 -5 0z"/>
<path d="M2050 3718 c0 -2 9 -11 20 -21 11 -9 20 -13 20 -7 0 5 -9 14 -20 20
-11 6 -20 9 -20 8z"/>
<path d="M1986 3694 c-3 -9 -6 -17 -6 -19 0 -2 33 -36 74 -77 43 -43 71 -79
68 -87 -4 -12 -2 -12 9 -1 12 11 2 25 -65 92 -61 60 -77 81 -68 90 8 8 12 9
12 1 0 -14 68 -82 75 -75 3 3 5 1 5 -5 0 -6 17 -28 38 -49 20 -20 36 -41 35
-46 -2 -4 2 -8 7 -8 6 0 10 4 10 9 0 8 -176 191 -184 191 -2 0 -7 -7 -10 -16z"/>
<path d="M2035 3690 c3 -5 8 -10 11 -10 2 0 4 5 4 10 0 6 -5 10 -11 10 -5 0
-7 -4 -4 -10z"/>
<path d="M2195 3690 c3 -5 8 -10 11 -10 2 0 4 5 4 10 0 6 -5 10 -11 10 -5 0
-7 -4 -4 -10z"/>
<path d="M2060 3683 c0 -12 20 -40 20 -29 0 6 6 1 14 -10 8 -10 16 -17 19 -14
3 3 -8 18 -24 33 -16 16 -29 25 -29 20z"/>
<path d="M2100 3678 c0 -3 9 -6 20 -5 11 1 20 5 20 9 0 3 -9 6 -20 5 -11 -1
-20 -5 -20 -9z"/>
<path d="M2220 3680 c0 -5 5 -10 11 -10 5 0 7 5 4 10 -3 6 -8 10 -11 10 -2 0
-4 -4 -4 -10z"/>
<path d="M3395 3680 c3 -5 8 -10 11 -10 2 0 4 5 4 10 0 6 -5 10 -11 10 -5 0
-7 -4 -4 -10z"/>
<path d="M2150 3670 c0 -5 5 -10 11 -10 5 0 7 5 4 10 -3 6 -8 10 -11 10 -2 0
-4 -4 -4 -10z"/>
<path d="M1950 3665 c0 -2 31 -35 70 -73 l69 -68 -25 -27 c-13 -15 -20 -27
-15 -27 6 0 15 10 22 22 11 21 12 20 46 -15 19 -21 37 -37 40 -37 6 0 -19 31
-47 60 -8 8 -16 20 -17 27 -2 10 -131 143 -139 143 -2 0 -4 -2 -4 -5z"/>
<path d="M3445 3660 c-3 -5 -1 -10 4 -10 6 0 11 5 11 10 0 6 -2 10 -4 10 -3 0
-8 -4 -11 -10z"/>
<path d="M3530 3650 c6 -11 15 -20 20 -20 6 0 2 9 -7 20 -10 11 -19 20 -21 20
-1 0 2 -9 8 -20z"/>
<path d="M2123 3654 c9 -3 15 -10 12 -15 -4 -5 5 -14 19 -20 14 -7 24 -15 21
-18 -2 -4 5 -13 16 -19 19 -12 19 -12 4 12 -9 14 -25 28 -36 31 -10 4 -18 11
-16 18 1 6 -7 12 -18 13 -15 2 -16 2 -2 -2z"/>
<path d="M3563 3652 c10 -4 18 -12 18 -17 0 -6 10 -15 22 -22 12 -7 19 -12 15
-13 -3 0 11 -17 33 -38 29 -30 36 -41 27 -50 -9 -9 -9 -12 0 -12 7 0 12 5 12
11 0 5 5 7 10 4 22 -14 7 6 -45 59 -31 31 -60 56 -65 56 -6 0 -9 5 -7 12 1 6
-7 13 -18 15 -18 3 -18 2 -2 -5z"/>
<path d="M1861 3642 c-1 -8 24 -37 54 -66 52 -49 70 -79 43 -73 -6 1 -13 -7
-15 -18 -3 -18 -2 -18 5 -2 4 10 12 17 17 16 6 -1 11 4 13 13 2 8 -20 38 -48
66 -27 27 -50 47 -51 43 0 -3 -4 3 -9 14 -5 11 -9 14 -9 7z"/>
<path d="M2165 3640 c3 -5 8 -10 11 -10 2 0 4 5 4 10 0 6 -5 10 -11 10 -5 0
-7 -4 -4 -10z"/>
<path d="M3483 3643 c9 -2 15 -9 12 -14 -4 -5 -2 -9 3 -9 6 0 12 6 15 13 3 8
-4 13 -22 14 -14 0 -18 -1 -8 -4z"/>
<path d="M3605 3640 c3 -5 8 -10 11 -10 2 0 4 5 4 10 0 6 -5 10 -11 10 -5 0
-7 -4 -4 -10z"/>
<path d="M3630 3631 c0 -5 8 -15 18 -20 9 -6 13 -11 9 -11 -4 0 10 -17 32 -37
22 -20 38 -40 35 -45 -3 -4 0 -8 5 -8 21 0 10 19 -44 75 -30 31 -55 52 -55 46z"/>
<path d="M3670 3633 c0 -5 21 -30 46 -57 l46 -47 20 20 c10 12 14 21 8 21 -6
0 -13 -7 -17 -16 -5 -13 -16 -6 -55 36 -26 29 -48 48 -48 43z"/>
<path d="M3460 3619 c0 -5 5 -7 10 -4 6 3 10 8 10 11 0 2 -4 4 -10 4 -5 0 -10
-5 -10 -11z"/>
<path d="M3530 3612 c8 -16 17 -21 35 -18 14 3 25 2 25 -2 0 -4 14 -21 30 -39
31 -33 39 -55 18 -50 -6 1 -13 -7 -15 -18 -3 -18 -2 -18 5 -2 4 10 12 17 17
16 6 -1 11 4 13 13 3 16 -67 95 -80 91 -5 -2 -8 2 -8 7 0 6 -5 10 -11 10 -5 0
-7 -4 -4 -10 10 -17 -7 -11 -22 8 -13 15 -13 15 -3 -6z"/>
<path d="M3813 3604 c-12 -13 -18 -24 -13 -24 11 0 40 29 40 41 0 12 -1 11
-27 -17z"/>
<path d="M3475 3600 c-4 -6 -11 -7 -17 -4 -7 4 -8 2 -4 -5 6 -9 12 -9 24 1 10
7 19 14 21 15 2 2 -1 3 -7 3 -6 0 -14 -5 -17 -10z"/>
<path d="M3492 3583 c-25 -26 -18 -32 9 -7 16 14 18 14 29 -5 6 -12 16 -21 23
-21 8 0 8 3 1 8 -5 4 -17 16 -25 28 l-14 21 -23 -24z"/>
<path d="M3563 3574 c9 -3 15 -9 12 -14 -3 -5 4 -14 15 -20 11 -6 18 -15 15
-21 -4 -5 -1 -9 5 -9 7 0 9 7 6 16 -3 9 -6 18 -6 20 0 2 -7 4 -15 4 -8 0 -14
5 -12 12 1 6 -7 13 -18 14 -15 2 -16 2 -2 -2z"/>
<path d="M3502 3554 c-17 -18 -15 -29 3 -14 21 17 33 -16 15 -44 -12 -19 -12
-20 3 -7 20 16 21 40 4 62 -10 14 -14 14 -25 3z"/>
<path d="M3850 3541 c0 -7 -4 -9 -10 -6 -5 3 -10 2 -10 -4 0 -5 -11 -8 -24 -5
-17 3 -28 -2 -35 -13 -5 -10 -13 -18 -18 -17 -4 0 -14 -6 -21 -13 -9 -8 -9
-13 -2 -13 6 0 13 7 16 15 4 8 10 12 15 9 5 -3 12 2 15 10 3 9 10 16 16 16 5
0 6 -4 3 -10 -3 -5 -1 -10 4 -10 6 0 11 4 11 9 0 6 9 8 19 6 18 -3 38 21 26
33 -3 3 -5 0 -5 -7z"/>
<path d="M3554 3520 c0 -11 4 -20 8 -20 4 0 8 9 8 20 0 11 -4 20 -8 20 -4 0
-8 -9 -8 -20z"/>
<path d="M3505 3519 c-4 -6 -5 -12 -2 -15 2 -3 7 2 10 11 7 17 1 20 -8 4z"/>
<path d="M2140 3500 c0 -6 7 -10 15 -10 8 0 15 2 15 4 0 2 -7 6 -15 10 -8 3
-15 1 -15 -4z"/>
<path d="M1895 3490 c-3 -5 -3 -10 2 -11 4 0 -1 -5 -12 -10 -19 -8 -19 -9 -1
-6 11 1 18 6 17 12 -1 5 6 12 16 16 16 7 16 8 1 8 -9 1 -20 -3 -23 -9z"/>
<path d="M1964 3434 c-64 -66 -73 -91 -11 -29 19 19 32 35 29 35 -4 0 7 9 23
20 17 11 26 20 20 21 -5 0 -1 4 10 9 13 5 15 9 5 9 -8 0 -43 -29 -76 -65z"/>
<path d="M3575 3490 c-3 -5 -3 -10 2 -11 4 0 -1 -5 -12 -10 -19 -8 -19 -9 -1
-6 11 1 18 6 17 12 -1 5 6 12 16 16 16 7 16 8 1 8 -9 1 -20 -3 -23 -9z"/>
<path d="M3695 3490 c-3 -5 -3 -10 2 -10 4 -1 -4 -8 -19 -16 -34 -18 -35 -29
-7 -45 15 -8 19 -8 15 0 -4 6 -2 11 3 11 6 0 11 5 11 12 0 9 -3 9 -12 0 -14
-14 -28 -16 -28 -4 0 5 12 14 26 20 14 7 23 16 19 21 -3 5 3 12 12 14 16 4 16
5 1 6 -9 0 -20 -3 -23 -9z"/>
<path d="M3815 3490 c-3 -5 -3 -10 2 -11 4 0 -1 -5 -12 -10 l-20 -9 20 3 c11
2 19 9 17 16 -2 9 3 11 13 8 8 -4 15 -2 15 3 0 13 -27 13 -35 0z"/>
<path d="M1848 3468 c-8 -13 -14 -31 -12 -40 1 -10 -2 -18 -7 -18 -5 0 -9 -5
-9 -11 0 -5 5 -7 10 -4 6 3 10 2 10 -4 0 -5 -5 -12 -10 -14 -6 -3 -5 -4 2 -3
7 2 13 14 13 27 -1 14 8 30 20 37 19 12 19 12 -5 6 -23 -6 -24 -6 -10 12 8 10
20 22 25 26 6 5 6 8 -1 8 -7 0 -18 -10 -26 -22z"/>
<path d="M1980 3479 c0 -5 5 -7 10 -4 6 3 10 8 10 11 0 2 -4 4 -10 4 -5 0 -10
-5 -10 -11z"/>
<path d="M2075 3471 c-3 -10 -24 -36 -47 -55 -23 -20 -39 -39 -36 -42 3 -3 24
14 47 37 33 34 42 39 47 25 3 -9 11 -16 17 -16 5 0 2 9 -8 20 -10 11 -16 23
-13 26 3 3 15 -7 27 -22 11 -15 21 -23 21 -18 0 5 -11 22 -24 37 -23 26 -25
27 -31 8z"/>
<path d="M3534 3475 c-4 -8 -11 -12 -17 -8 -6 3 -7 1 -3 -5 9 -15 9 -15 29 8
9 11 12 20 7 20 -6 0 -13 -7 -16 -15z"/>
<path d="M3660 3479 c0 -5 5 -7 10 -4 6 3 10 8 10 11 0 2 -4 4 -10 4 -5 0 -10
-5 -10 -11z"/>
<path d="M3774 3475 c-4 -8 -10 -13 -15 -10 -4 3 -14 -6 -21 -19 -7 -14 -17
-25 -23 -25 -5 0 -11 -8 -12 -18 -3 -17 -2 -17 5 0 4 10 12 18 17 18 6 0 15 9
20 19 6 10 14 19 18 19 12 0 40 31 27 31 -6 0 -13 -7 -16 -15z"/>
<path d="M1916 3465 c-9 -26 -7 -32 5 -12 6 10 9 21 6 23 -2 3 -7 -2 -11 -11z"/>
<path d="M1937 3449 c-16 -16 -25 -29 -20 -29 12 0 40 20 29 20 -6 0 -1 6 10
14 10 8 17 16 14 19 -3 3 -18 -8 -33 -24z"/>
<path d="M3596 3465 c-9 -26 -7 -32 5 -12 6 10 9 21 6 23 -2 3 -7 -2 -11 -11z"/>
<path d="M3626 3459 c-19 -19 -19 -19 2 -39 12 -12 22 -16 22 -11 0 6 -8 14
-17 20 -17 9 -17 11 2 25 11 8 18 16 15 19 -3 2 -14 -4 -24 -14z"/>
<path d="M3855 3470 c-3 -5 -1 -10 4 -10 6 0 11 5 11 10 0 6 -2 10 -4 10 -3 0
-8 -4 -11 -10z"/>
<path d="M1991 3419 c-24 -22 -41 -42 -39 -45 3 -2 26 16 51 41 26 25 43 45
38 45 -4 0 -27 -18 -50 -41z"/>
<path d="M3710 3449 c0 -5 5 -7 10 -4 6 3 10 8 10 11 0 2 -4 4 -10 4 -5 0 -10
-5 -10 -11z"/>
<path d="M3830 3450 c0 -6 7 -10 15 -10 8 0 15 2 15 4 0 2 -7 6 -15 10 -8 3
-15 1 -15 -4z"/>
<path d="M1890 3437 c0 -9 -5 -16 -12 -14 -6 1 -13 -6 -14 -16 -1 -12 0 -13 3
-2 2 8 9 13 14 9 11 -6 25 24 15 33 -3 4 -6 -1 -6 -10z"/>
<path d="M3536 3443 c-10 -10 -7 -23 5 -23 5 0 7 5 4 10 -3 6 -2 10 4 10 5 0
11 -5 13 -12 3 -8 6 -7 10 3 6 15 -23 24 -36 12z"/>
<path d="M3767 3439 c-9 -6 -15 -14 -12 -20 4 -5 1 -9 -4 -9 -6 0 -11 -5 -11
-11 0 -5 5 -7 10 -4 17 11 11 -7 -7 -21 -17 -13 -17 -15 0 -28 18 -14 24 -32
7 -21 -5 3 -10 1 -10 -4 0 -6 5 -11 11 -11 5 0 8 -4 4 -9 -6 -10 33 -36 42
-28 2 3 -4 8 -16 12 -14 4 -18 12 -15 30 3 16 -2 27 -13 34 -17 9 -17 11 -1
23 10 7 16 22 14 33 -2 12 5 25 18 32 11 7 17 12 11 12 -5 0 -18 -4 -28 -10z"/>
<path d="M3810 3437 c0 -9 -5 -16 -12 -14 -6 1 -13 -6 -14 -16 -1 -12 0 -13 3
-2 2 8 9 13 14 9 11 -6 25 24 15 33 -3 4 -6 -1 -6 -10z"/>
<path d="M3871 3434 c0 -11 3 -14 6 -6 3 7 2 16 -1 19 -3 4 -6 -2 -5 -13z"/>
<path d="M2052 3399 c-13 -16 -21 -29 -17 -29 4 0 15 10 25 23 17 20 19 20 25
5 4 -10 11 -18 17 -18 5 0 7 4 3 9 -3 5 0 11 7 14 7 2 5 3 -5 1 -9 -1 -20 4
-25 10 -5 10 -14 5 -30 -15z"/>
<path d="M3580 3421 c0 -5 7 -11 15 -15 8 -3 15 -1 15 3 0 5 -7 11 -15 15 -8
3 -15 1 -15 -3z"/>
<path d="M3836 3418 c3 -4 0 -8 -5 -8 -6 0 -11 -4 -11 -8 0 -5 7 -9 15 -9 8 0
12 4 9 9 -3 4 0 8 5 8 6 0 11 4 11 8 0 5 -7 9 -15 9 -8 0 -12 -4 -9 -9z"/>
<path d="M1900 3399 c0 -5 5 -7 10 -4 6 3 10 8 10 11 0 2 -4 4 -10 4 -5 0 -10
-5 -10 -11z"/>
<path d="M3536 3401 c-4 -5 2 -7 13 -4 10 3 22 0 25 -6 4 -6 15 -11 24 -11 11
0 6 6 -12 15 -33 17 -43 18 -50 6z"/>
<path d="M3623 3397 c1 -10 6 -17 10 -15 5 2 13 -5 18 -14 6 -10 15 -18 20
-18 6 0 4 7 -5 15 -8 9 -19 15 -23 15 -4 -1 -11 7 -15 17 -7 17 -8 17 -5 0z"/>
<path d="M3660 3400 c0 -6 5 -10 11 -10 5 0 7 -5 3 -12 -4 -7 -3 -8 4 -4 16
10 15 23 -3 30 -8 3 -15 1 -15 -4z"/>
<path d="M1795 3390 c-3 -5 -1 -10 4 -10 6 0 11 5 11 10 0 6 -2 10 -4 10 -3 0
-8 -4 -11 -10z"/>
<path d="M1872 3384 c-7 -8 -8 -14 -3 -14 10 0 25 19 20 25 -2 1 -10 -3 -17
-11z"/>
<path d="M3706 3379 c-19 -19 -19 -19 2 -39 12 -12 22 -16 22 -11 0 6 -8 14
-17 20 -17 9 -17 11 2 25 11 8 18 16 15 19 -3 2 -14 -4 -24 -14z"/>
<path d="M3786 3379 c-19 -19 -19 -19 2 -39 12 -12 22 -16 22 -11 0 6 -8 14
-17 20 -17 9 -17 11 2 25 11 8 18 16 15 19 -3 2 -14 -4 -24 -14z"/>
<path d="M3554 3378 c3 -9 0 -19 -7 -22 -7 -3 0 -3 16 -1 15 2 27 -1 27 -6 0
-5 5 -9 11 -9 5 0 7 5 4 10 -3 6 -2 10 3 10 6 0 13 -7 16 -16 3 -8 10 -13 15
-10 5 4 12 -2 15 -11 4 -14 4 -14 3 2 -1 11 -5 18 -9 15 -4 -3 -13 3 -20 12
-7 10 -22 16 -33 14 -11 -2 -26 4 -33 13 -12 15 -13 14 -8 -1z"/>
<path d="M3815 3370 c-8 -13 3 -30 18 -29 9 0 9 2 0 6 -7 2 -13 9 -13 15 0 6
7 8 15 4 8 -3 15 -1 15 4 0 13 -27 13 -35 0z"/>
<path d="M3855 3350 c-3 -5 -1 -10 4 -10 6 0 11 5 11 10 0 6 -2 10 -4 10 -3 0
-8 -4 -11 -10z"/>
<path d="M3575 3328 c27 -16 45 -18 45 -6 0 6 -7 8 -15 5 -8 -4 -17 -2 -20 3
-4 6 -12 10 -18 10 -7 0 -3 -6 8 -12z"/>
<path d="M3673 3320 c-1 -11 2 -20 5 -20 4 0 8 9 9 20 1 11 -2 20 -5 20 -4 0
-8 -9 -9 -20z"/>
<path d="M3701 3314 c0 -11 3 -14 6 -6 3 7 2 16 -1 19 -3 4 -6 -2 -5 -13z"/>
<path d="M3783 3317 c1 -10 6 -17 12 -17 5 1 13 -7 17 -17 7 -17 8 -17 5 0 -1
10 -6 17 -12 17 -5 -1 -13 7 -17 17 -7 17 -8 17 -5 0z"/>
<path d="M3820 3318 c0 -11 12 -10 30 2 12 7 10 9 -8 7 -12 0 -22 -5 -22 -9z"/>
<path d="M3550 3316 c0 -2 7 -9 15 -16 9 -7 15 -8 15 -2 0 5 -7 12 -15 16 -8
3 -15 4 -15 2z"/>
<path d="M3630 3310 c0 -5 9 -14 20 -20 11 -6 20 -9 20 -8 0 2 -9 11 -20 21
-11 9 -20 13 -20 7z"/>
<path d="M3729 3294 c6 -12 7 -24 4 -28 -3 -3 -1 -6 5 -6 16 0 15 12 -4 36
-15 18 -15 18 -5 -2z"/>
<path d="M3840 3300 c-13 -8 -12 -10 3 -10 9 0 17 5 17 10 0 12 -1 12 -20 0z"/>
<path d="M3590 3291 c0 -6 5 -13 12 -17 7 -5 8 -3 3 6 -6 10 -4 12 9 7 10 -4
15 -3 11 3 -8 13 -35 13 -35 1z"/>
<path d="M3711 3274 c0 -11 3 -14 6 -6 3 7 2 16 -1 19 -3 4 -6 -2 -5 -13z"/>
<path d="M3633 3273 c-7 -2 -13 -9 -13 -14 0 -6 4 -8 9 -4 5 3 12 -3 14 -12 3
-10 4 -6 4 10 -1 15 -2 27 -2 26 0 0 -6 -3 -12 -6z"/>
<path d="M3830 3274 c0 -3 11 -19 25 -36 14 -16 25 -25 25 -20 0 5 -11 21 -25
36 -14 15 -25 24 -25 20z"/>
<path d="M3580 3261 c0 -5 7 -11 15 -15 8 -3 15 -1 15 3 0 5 -7 11 -15 15 -8
3 -15 1 -15 -3z"/>
<path d="M3660 3262 c0 -4 9 -8 20 -9 11 -1 20 2 20 5 0 4 -9 8 -20 9 -11 1
-20 -2 -20 -5z"/>
<path d="M3770 3250 c6 -11 15 -20 20 -20 6 0 2 9 -7 20 -10 11 -19 20 -21 20
-1 0 2 -9 8 -20z"/>
<path d="M3555 3240 c3 -5 8 -10 11 -10 2 0 4 5 4 10 0 6 -5 10 -11 10 -5 0
-7 -4 -4 -10z"/>
<path d="M3723 3243 c9 -2 15 -9 12 -14 -4 -5 -2 -9 3 -9 6 0 12 6 15 13 3 8
-4 13 -22 14 -14 0 -18 -1 -8 -4z"/>
<path d="M3615 3230 c-3 -5 -1 -10 4 -10 6 0 11 5 11 10 0 6 -2 10 -4 10 -3 0
-8 -4 -11 -10z"/>
<path d="M3668 3233 c7 -3 16 -2 19 1 4 3 -2 6 -13 5 -11 0 -14 -3 -6 -6z"/>
<path d="M3580 3219 c0 -5 5 -7 10 -4 6 3 10 8 10 11 0 2 -4 4 -10 4 -5 0 -10
-5 -10 -11z"/>
<path d="M3700 3219 c0 -5 5 -7 10 -4 6 3 10 8 10 11 0 2 -4 4 -10 4 -5 0 -10
-5 -10 -11z"/>
<path d="M3775 3202 c9 -18 20 -30 25 -27 5 3 11 -2 13 -10 3 -11 4 -10 3 2
-1 10 -8 17 -14 16 -7 -2 -12 1 -12 5 0 5 -7 17 -15 28 -14 16 -14 15 0 -14z"/>
<path d="M3557 3201 c-4 -17 -3 -21 5 -13 5 5 8 16 6 23 -3 8 -7 3 -11 -10z"/>
<path d="M3650 3209 c0 -5 5 -7 10 -4 6 3 10 8 10 11 0 2 -4 4 -10 4 -5 0 -10
-5 -10 -11z"/>
<path d="M3637 3168 c-26 -28 -46 -52 -44 -54 2 -3 22 14 45 37 39 41 40 41
51 20 7 -11 16 -21 22 -21 5 0 1 9 -10 21 -11 12 -17 27 -14 35 8 21 2 17 -50
-38z"/>
<path d="M3795 3210 c3 -5 8 -10 11 -10 2 0 4 5 4 10 0 6 -5 10 -11 10 -5 0
-7 -4 -4 -10z"/>
<path d="M3592 3163 l-43 -45 27 -23 26 -23 36 40 c35 39 36 39 51 19 10 -13
24 -19 38 -17 16 3 24 -1 28 -15 4 -11 9 -18 12 -16 8 9 -18 48 -28 42 -5 -4
-9 -1 -9 4 0 6 -5 11 -11 11 -5 0 -7 -4 -4 -10 3 -5 2 -10 -3 -10 -5 0 -14 11
-22 24 l-12 24 -39 -41 c-37 -38 -41 -40 -56 -24 -16 15 -14 19 20 53 20 21
37 41 37 46 0 11 0 11 -48 -39z"/>
<path d="M3710 3200 c-12 -7 -10 -9 8 -7 12 0 22 5 22 9 0 11 -12 10 -30 -2z"/>
<path d="M3750 3195 c0 -8 4 -15 10 -15 5 0 7 7 4 15 -4 8 -8 15 -10 15 -2 0
-4 -7 -4 -15z"/>
<path d="M3820 3200 c0 -5 5 -10 11 -10 5 0 7 5 4 10 -3 6 -8 10 -11 10 -2 0
-4 -4 -4 -10z"/>
<path d="M3723 3172 c10 -4 18 -12 18 -17 0 -6 10 -15 22 -22 12 -6 20 -13 17
-15 -3 -3 3 -12 13 -22 9 -10 17 -12 17 -6 0 6 -7 13 -15 16 -8 4 -13 10 -10
15 3 4 -6 14 -19 21 -14 7 -25 18 -25 23 0 6 -8 11 -18 12 -17 3 -17 2 0 -5z"/>
<path d="M3838 3173 c6 -2 12 -9 12 -14 0 -6 -4 -7 -10 -4 -5 3 -10 1 -10 -4
0 -14 10 -14 30 -1 13 9 13 11 0 20 -8 5 -19 9 -25 9 -5 0 -4 -3 3 -6z"/>
<path d="M3765 3160 c3 -5 8 -10 11 -10 2 0 4 5 4 10 0 6 -5 10 -11 10 -5 0
-7 -4 -4 -10z"/>
<path d="M3643 3092 c-18 -20 -31 -38 -28 -40 2 -2 17 11 33 29 29 33 29 33
41 11 6 -12 17 -22 24 -22 8 0 8 3 1 8 -5 4 -17 17 -25 28 -14 21 -14 21 -46
-14z"/>
<path d="M3545 3079 c3 -12 9 -27 15 -33 8 -8 9 -5 4 9 -6 17 -5 18 7 7 8 -7
14 -19 14 -27 0 -8 5 -15 10 -16 6 0 14 -7 18 -15 4 -8 12 -14 17 -14 6 0 2 9
-7 19 -9 11 -21 17 -26 14 -6 -4 -8 0 -5 9 7 17 2 25 -29 52 -22 18 -22 18
-18 -5z"/>
<path d="M3723 3092 c10 -4 18 -12 17 -17 0 -6 7 -11 17 -12 17 -3 17 -2 0 5
-10 4 -18 12 -17 17 0 6 -7 11 -17 12 -17 3 -17 2 0 -5z"/>
<path d="M1830 3080 c0 -6 7 -10 15 -10 8 0 15 2 15 4 0 2 -7 6 -15 10 -8 3
-15 1 -15 -4z"/>
<path d="M1887 3071 c-4 -17 -3 -21 5 -13 5 5 8 16 6 23 -3 8 -7 3 -11 -10z"/>
<path d="M1990 3062 c12 -18 26 -30 31 -27 5 4 9 1 9 -4 0 -6 4 -11 10 -11 5
0 7 7 4 15 -4 9 -12 14 -19 13 -7 -2 -23 8 -35 22 l-22 25 22 -33z"/>
<path d="M2007 3073 c3 -7 9 -13 15 -13 5 0 7 4 3 9 -3 5 3 12 12 14 10 3 6 4
-8 4 -18 -1 -25 -6 -22 -14z"/>
<path d="M2073 3078 c2 -7 0 -21 -5 -30 -7 -14 5 -32 61 -86 53 -51 72 -64 76
-53 3 9 3 12 -1 8 -4 -3 -33 20 -65 52 -32 32 -62 55 -65 52 -4 -3 -4 2 -1 12
4 10 7 21 7 23 0 3 5 2 10 -1 6 -3 10 -1 10 4 0 6 -5 11 -11 11 -5 0 -7 5 -4
10 3 6 1 10 -5 10 -7 0 -10 -6 -7 -12z"/>
<path d="M2110 3080 c0 -6 7 -10 15 -10 8 0 15 2 15 4 0 2 -7 6 -15 10 -8 3
-15 1 -15 -4z"/>
<path d="M3649 3059 c-23 -23 -24 -27 -9 -26 10 1 17 4 14 8 -2 4 3 12 11 19
12 10 16 8 24 -11 5 -13 10 -17 10 -9 0 8 -5 22 -12 31 -11 13 -15 12 -38 -12z"/>
<path d="M3781 3080 c-1 -14 45 -60 60 -60 5 0 -2 10 -14 23 -12 13 -25 22
-29 20 -3 -2 -9 5 -11 14 -3 12 -5 13 -6 3z"/>
<path d="M3820 3080 c0 -6 5 -10 11 -10 5 0 7 -5 3 -12 -4 -7 -3 -8 4 -4 16
10 15 23 -3 30 -8 3 -15 1 -15 -4z"/>
<path d="M1914 3063 c4 -7 2 -13 -3 -13 -6 0 -11 -5 -11 -12 0 -9 3 -9 12 0 9
9 22 1 57 -35 25 -27 49 -47 53 -45 4 1 8 -2 8 -8 0 -5 5 -10 11 -10 5 0 7 5
4 10 -13 21 7 8 46 -30 23 -22 45 -40 50 -40 5 0 -5 -16 -23 -36 -32 -35 -33
-35 -47 -15 -7 12 -18 21 -23 21 -5 0 0 -10 12 -22 11 -12 20 -26 20 -31 0 -5
18 10 39 33 l39 43 -36 36 c-21 20 -40 35 -43 34 -4 -2 -10 4 -13 12 -4 10
-14 14 -31 11 -14 -3 -25 -2 -25 2 0 4 -15 23 -33 42 -37 40 -75 71 -63 53z"/>
<path d="M2045 3060 c3 -5 8 -10 11 -10 2 0 4 5 4 10 0 6 -5 10 -11 10 -5 0
-7 -4 -4 -10z"/>
<path d="M1853 3053 c4 -3 0 -18 -9 -32 l-15 -26 20 24 c24 26 27 41 9 41 -6
0 -8 -3 -5 -7z"/>
<path d="M2106 3045 c-3 -8 6 -26 20 -40 27 -27 44 -32 44 -13 0 6 -3 9 -6 5
-10 -10 -53 35 -47 49 3 8 3 14 0 14 -3 0 -7 -7 -11 -15z"/>
<path d="M3713 3040 c-1 -11 2 -20 5 -20 4 0 8 9 9 20 1 11 -2 20 -5 20 -4 0
-8 -9 -9 -20z"/>
<path d="M3530 3041 c0 -9 30 -24 36 -18 2 1 -6 8 -16 15 -11 7 -20 8 -20 3z"/>
<path d="M3671 3038 c-1 -9 7 -21 17 -27 9 -5 15 -13 12 -18 -3 -4 4 -9 15
-10 l20 -3 -20 9 c-11 5 -15 10 -10 11 6 0 3 6 -6 13 -9 7 -18 19 -22 27 -4
12 -6 12 -6 -2z"/>
<path d="M3741 3041 c-1 -13 80 -94 86 -87 2 2 -12 19 -32 39 -19 19 -35 32
-36 29 0 -4 -4 2 -9 13 -5 11 -9 14 -9 6z"/>
<path d="M3796 3015 c34 -34 44 -40 44 -31 0 8 -64 66 -73 66 -4 0 9 -16 29
-35z"/>
<path d="M1875 3030 c-3 -5 -1 -10 4 -10 6 0 11 5 11 10 0 6 -2 10 -4 10 -3 0
-8 -4 -11 -10z"/>
<path d="M1903 3014 c-10 -7 -13 -14 -8 -14 6 -1 1 -6 -10 -11 l-20 -9 20 3
c11 2 19 9 18 15 -5 24 20 11 58 -28 22 -22 43 -40 49 -40 5 0 9 -5 8 -12 -2
-6 4 -13 12 -13 8 -1 9 0 2 2 -7 3 -10 9 -7 14 4 5 -5 14 -19 20 -14 7 -24 15
-23 18 2 3 -12 20 -30 37 -28 28 -35 30 -50 18z"/>
<path d="M3643 3014 c9 -3 15 -10 11 -15 -3 -5 2 -12 10 -15 9 -3 16 -10 16
-16 0 -5 -4 -6 -10 -3 -5 3 -10 1 -10 -4 0 -6 4 -11 9 -11 5 0 8 -11 5 -24 -3
-18 3 -28 24 -42 15 -10 33 -24 40 -31 16 -15 32 -17 32 -3 0 6 -3 9 -7 8 -11
-3 -83 45 -83 55 0 5 5 5 10 2 6 -3 10 -1 10 4 0 6 -4 11 -9 11 -5 0 -8 11 -5
24 3 17 -2 28 -13 35 -10 5 -17 13 -15 18 2 4 -5 9 -15 10 -17 2 -17 1 0 -3z"/>
<path d="M1850 2990 c-6 -11 -9 -20 -8 -20 2 0 11 9 21 20 9 11 13 20 7 20 -5
0 -14 -9 -20 -20z"/>
<path d="M2088 2963 c65 -64 92 -87 92 -80 0 8 -100 106 -100 98 0 -3 -5 2
-11 12 -5 9 -14 17 -20 17 -5 0 12 -21 39 -47z"/>
<path d="M3574 2995 c8 -9 19 -16 23 -16 4 0 13 -9 18 -19 6 -10 14 -19 20
-19 5 0 13 -8 17 -18 7 -17 8 -17 5 0 -1 10 -6 17 -10 15 -5 -2 -15 10 -23 25
-8 15 -19 25 -23 22 -5 -3 -11 2 -15 10 -3 8 -10 15 -16 15 -7 0 -5 -7 4 -15z"/>
<path d="M3757 2973 c21 -21 40 -36 43 -35 2 2 8 -5 12 -15 7 -17 8 -17 5 0
-1 10 -6 17 -11 17 -5 -1 -17 11 -27 27 -10 15 -19 24 -19 18 0 -5 -5 -2 -11
8 -5 9 -15 17 -20 17 -6 0 7 -17 28 -37z"/>
<path d="M1910 2968 c0 -6 3 -9 6 -5 3 3 17 -6 30 -20 13 -14 24 -21 24 -15 0
6 -8 16 -17 21 -10 6 -13 11 -8 11 11 0 -15 20 -27 20 -5 0 -8 -5 -8 -12z"/>
<path d="M3635 2970 c3 -5 8 -10 11 -10 2 0 4 5 4 10 0 6 -5 10 -11 10 -5 0
-7 -4 -4 -10z"/>
<path d="M1862 2953 c4 -23 32 -23 34 0 1 12 1 13 -3 2 -2 -8 -9 -15 -15 -15
-5 0 -8 7 -4 15 3 8 1 15 -5 15 -6 0 -9 -8 -7 -17z"/>
<path d="M2170 2960 c0 -5 5 -10 11 -10 5 0 7 5 4 10 -3 6 -8 10 -11 10 -2 0
-4 -4 -4 -10z"/>
<path d="M3510 2939 c12 -16 25 -27 28 -24 4 3 0 10 -8 15 -8 6 -11 10 -7 10
5 0 2 7 -7 15 -25 25 -28 17 -6 -16z"/>
<path d="M3543 2957 c1 -10 6 -17 12 -17 5 1 13 -7 17 -17 7 -17 8 -17 5 0 -1
10 -6 17 -12 17 -5 -1 -13 7 -17 17 -7 17 -8 17 -5 0z"/>
<path d="M3576 2957 c13 -7 20 -20 18 -32 -2 -11 4 -26 14 -33 9 -7 17 -16 16
-20 0 -4 6 -13 13 -20 8 -9 13 -9 13 -2 0 6 -7 13 -15 16 -8 4 -12 10 -9 15 3
5 -2 12 -10 15 -9 3 -16 10 -16 16 0 5 5 6 10 3 6 -3 10 -1 10 4 0 6 -5 11
-11 11 -5 0 -8 4 -4 9 3 6 -3 15 -14 20 -27 15 -41 13 -15 -2z"/>
<path d="M3703 2957 c1 -10 6 -17 12 -17 5 1 13 -7 17 -17 7 -17 8 -17 5 0 -1
10 -6 17 -12 17 -5 -1 -13 7 -17 17 -7 17 -8 17 -5 0z"/>
<path d="M1914 2943 c3 -6 0 -13 -6 -16 -7 -2 -11 -7 -8 -10 3 -3 12 -2 20 3
13 8 13 11 1 22 -8 8 -11 8 -7 1z"/>
<path d="M1944 2912 c1 -7 5 -12 9 -10 5 2 13 -5 18 -15 7 -11 18 -16 35 -13
13 3 24 0 24 -5 0 -5 5 -9 11 -9 5 0 7 5 4 10 -3 6 -2 10 3 10 5 0 15 -11 22
-25 l13 -24 19 21 c24 28 23 36 -1 14 -19 -17 -20 -17 -31 3 -8 15 -18 20 -35
17 -14 -3 -25 0 -25 5 0 5 -5 9 -11 9 -5 0 -7 -4 -4 -10 3 -5 2 -10 -3 -10 -6
0 -13 7 -16 16 -3 8 -10 13 -15 10 -5 -4 -11 -1 -14 6 -3 10 -4 10 -3 0z"/>
<path d="M1980 2920 c0 -5 5 -10 11 -10 5 0 7 5 4 10 -3 6 -8 10 -11 10 -2 0
-4 -4 -4 -10z"/>
<path d="M2063 2906 c14 -13 23 -27 19 -32 -4 -4 -2 -4 5 0 7 4 10 13 7 21 -4
8 -10 13 -14 10 -4 -3 -10 2 -14 10 -3 8 -11 15 -17 15 -7 0 0 -11 14 -24z"/>
<path d="M1876 2903 c-6 -14 -5 -15 5 -6 7 7 10 15 7 18 -3 3 -9 -2 -12 -12z"/>
<path d="M3550 2910 c0 -6 7 -13 15 -16 8 -4 12 -10 9 -15 -3 -5 2 -12 10 -15
9 -3 16 -10 16 -16 0 -5 -4 -6 -10 -3 -5 3 -10 1 -10 -4 0 -6 5 -11 11 -11 5
0 8 -4 4 -9 -6 -10 33 -36 42 -28 2 3 -4 8 -16 12 -14 4 -18 12 -15 30 3 16
-2 27 -13 34 -10 5 -17 12 -15 16 1 3 -4 13 -13 21 -8 9 -15 11 -15 4z"/>
<path d="M3630 2910 c0 -5 7 -13 16 -18 9 -5 15 -13 15 -18 -1 -5 5 -9 12 -9
6 0 29 -17 50 -37 20 -21 37 -33 37 -28 0 16 -71 75 -87 72 -8 -2 -13 1 -10 6
4 4 -3 16 -14 25 -10 9 -19 13 -19 7z"/>
<path d="M3710 2911 c0 -5 11 -16 25 -25 14 -9 25 -15 25 -13 0 2 -11 13 -25
25 -14 12 -25 18 -25 13z"/>
<path d="M3790 2911 c0 -6 4 -13 10 -16 6 -3 7 1 4 9 -7 18 -14 21 -14 7z"/>
<path d="M1905 2897 c-20 -16 -13 -38 13 -36 15 1 15 2 0 6 -10 2 -18 9 -18
14 0 16 18 10 40 -13 11 -12 20 -18 21 -12 0 5 5 0 10 -11 7 -17 8 -17 6 -2
-1 10 -5 18 -9 18 -12 -1 -45 33 -41 42 6 11 -1 9 -22 -6z"/>
<path d="M3474 2901 c7 -11 46 -35 46 -28 0 3 -12 12 -26 22 -15 9 -23 12 -20
6z"/>
<path d="M2202 2886 c-7 -6 -36 -35 -65 -64 -50 -52 -52 -52 -67 -33 -9 13
-23 19 -37 17 -16 -3 -24 1 -28 15 -4 11 -9 18 -12 16 -8 -9 18 -48 28 -42 5
4 9 1 9 -4 0 -6 5 -11 11 -11 5 0 7 5 4 10 -3 6 -2 10 3 10 5 0 14 -11 21 -23
13 -24 13 -23 82 46 39 38 69 70 67 72 -2 1 -9 -2 -16 -9z"/>
<path d="M2003 2852 c10 -4 18 -12 17 -17 0 -6 7 -11 17 -12 17 -3 17 -2 0 5
-10 4 -18 12 -17 17 0 6 -7 11 -17 12 -17 3 -17 2 0 -5z"/>
<path d="M3510 2850 c0 -5 5 -10 10 -10 6 0 10 5 10 10 0 6 -4 10 -10 10 -5 0
-10 -4 -10 -10z"/>
<path d="M1900 2838 c0 -3 9 -6 20 -5 11 1 20 5 20 9 0 3 -9 6 -20 5 -11 -1
-20 -5 -20 -9z"/>
<path d="M2176 2784 c-36 -38 -66 -71 -66 -75 0 -4 32 24 70 63 39 39 69 72
67 75 -3 2 -34 -26 -71 -63z"/>
<path d="M3437 2839 c7 -7 15 -10 18 -7 3 3 -2 9 -12 12 -14 6 -15 5 -6 -5z"/>
<path d="M3543 2837 c1 -10 6 -17 10 -15 5 2 15 -10 23 -25 8 -15 19 -25 23
-22 5 3 11 -2 15 -10 3 -8 10 -15 16 -15 6 0 4 8 -6 18 -10 9 -19 15 -22 12
-2 -3 -9 5 -15 17 -7 12 -16 22 -22 22 -5 0 -13 8 -17 18 -7 17 -8 17 -5 0z"/>
<path d="M3623 2837 c1 -10 6 -17 12 -17 5 1 13 -7 17 -17 7 -17 8 -17 5 0 -1
10 -6 17 -12 17 -5 -1 -13 7 -17 17 -7 17 -8 17 -5 0z"/>
<path d="M3660 2840 c0 -5 5 -10 11 -10 5 0 24 -13 42 -30 18 -16 26 -30 19
-30 -7 0 -20 7 -28 15 -18 17 -34 20 -34 4 0 -5 4 -8 9 -5 5 3 14 -1 21 -9 7
-8 18 -15 26 -15 25 0 24 18 -3 45 -34 33 -63 50 -63 35z"/>
<path d="M1950 2830 c0 -6 7 -13 15 -16 8 -4 13 -10 10 -15 -3 -4 7 -15 22
-23 15 -8 27 -18 25 -23 -2 -4 5 -9 15 -10 17 -3 17 -2 0 5 -10 4 -18 12 -18
17 0 6 -9 15 -19 20 -10 6 -19 14 -19 18 0 12 -31 40 -31 27z"/>
<path d="M3490 2830 c0 -5 5 -10 11 -10 5 0 7 5 4 10 -3 6 -8 10 -11 10 -2 0
-4 -4 -4 -10z"/>
<path d="M1928 2812 c8 -5 14 -13 15 -18 1 -13 27 -37 27 -25 0 5 -6 14 -14
18 -8 4 -15 12 -15 18 0 5 -5 11 -13 13 -11 3 -11 2 0 -6z"/>
<path d="M2205 2774 c-56 -62 -57 -76 -1 -19 25 27 46 52 46 56 0 13 -1 12
-45 -37z"/>
<path d="M3453 2800 c-1 -11 2 -20 5 -20 4 0 8 9 9 20 1 11 -2 20 -5 20 -4 0
-8 -9 -9 -20z"/>
<path d="M3397 2803 c-10 -9 -9 -23 1 -23 5 0 9 7 9 15 0 17 -1 18 -10 8z"/>
<path d="M3420 2798 c1 -14 34 -58 45 -58 3 0 4 4 0 9 -3 5 0 11 7 14 7 2 5 3
-4 2 -20 -3 -42 20 -33 35 3 5 1 10 -4 10 -6 0 -11 -6 -11 -12z"/>
<path d="M3481 2794 c0 -11 3 -14 6 -6 3 7 2 16 -1 19 -3 4 -6 -2 -5 -13z"/>
<path d="M3500 2806 c0 -2 9 -6 20 -9 11 -3 20 -1 20 4 0 5 -9 9 -20 9 -11 0
-20 -2 -20 -4z"/>
<path d="M2255 2790 c-3 -5 -1 -10 4 -10 6 0 11 5 11 10 0 6 -2 10 -4 10 -3 0
-8 -4 -11 -10z"/>
<path d="M3550 2790 c0 -5 5 -10 11 -10 5 0 7 5 4 10 -3 6 -8 10 -11 10 -2 0
-4 -4 -4 -10z"/>
<path d="M3500 2780 c0 -4 11 -10 25 -12 13 -3 22 -2 20 2 -7 11 -45 20 -45
10z"/>
<path d="M3643 2772 c10 -4 18 -11 17 -15 0 -4 6 -15 15 -23 8 -9 15 -11 15
-5 0 5 -8 14 -17 20 -10 5 -17 13 -15 18 2 4 -5 9 -15 10 -17 3 -17 2 0 -5z"/>
<path d="M1980 2760 c0 -5 5 -10 11 -10 5 0 7 5 4 10 -3 6 -8 10 -11 10 -2 0
-4 -4 -4 -10z"/>
<path d="M2198 2726 c-27 -26 -54 -43 -65 -42 -10 2 -12 1 -5 -1 7 -3 10 -9 7
-14 -4 -5 -1 -9 4 -9 6 0 11 5 11 11 0 5 3 8 8 6 4 -2 28 18 54 45 58 60 49
63 -14 4z"/>
<path d="M3401 2763 c9 -2 22 -15 29 -28 12 -22 50 -31 50 -12 0 5 -7 7 -15 3
-9 -3 -21 4 -31 19 -9 14 -24 24 -33 24 -14 -1 -14 -2 0 -6z"/>
<path d="M3572 2756 c7 -8 15 -12 17 -11 5 6 -10 25 -20 25 -5 0 -4 -6 3 -14z"/>
<path d="M3692 2754 c9 -9 21 -15 27 -13 6 2 -2 10 -17 17 -25 11 -25 11 -10
-4z"/>
<path d="M2313 2747 c4 -10 -3 -21 -17 -31 -13 -8 -31 -22 -40 -31 -10 -10
-16 -12 -16 -4 0 6 -9 0 -20 -14 -11 -14 -20 -29 -20 -33 0 -4 9 3 20 16 11
13 20 19 20 13 0 -5 18 8 41 29 23 22 44 37 47 34 6 -6 -77 -91 -89 -91 -13 0
-87 -69 -83 -77 3 -5 0 -8 -5 -8 -6 0 -11 -5 -11 -12 0 -9 3 -9 12 0 8 8 15 7
27 -6 25 -27 61 -56 61 -49 0 3 -17 22 -37 41 l-38 36 35 33 c20 17 41 33 47
34 7 2 33 23 57 49 l45 45 -21 21 c-15 15 -20 17 -15 5z"/>
<path d="M3378 2748 c5 -5 16 -8 23 -6 8 3 3 7 -10 11 -17 4 -21 3 -13 -5z"/>
<path d="M1954 2738 c-4 -7 -3 -8 4 -4 7 4 12 3 12 -1 0 -5 7 -18 15 -29 14
-17 14 -15 0 14 -17 35 -20 37 -31 20z"/>
<path d="M2245 2740 c-3 -5 -1 -10 4 -10 6 0 11 5 11 10 0 6 -2 10 -4 10 -3 0
-8 -4 -11 -10z"/>
<path d="M3363 2725 c8 -16 44 -60 81 -96 49 -50 62 -69 54 -77 -8 -8 -9 -12
-1 -12 32 0 15 34 -48 99 -43 44 -67 76 -63 84 4 6 4 9 -1 5 -4 -4 -14 0 -22
10 -11 14 -11 11 0 -13z"/>
<path d="M3485 2740 c3 -5 8 -10 11 -10 2 0 4 5 4 10 0 6 -5 10 -11 10 -5 0
-7 -4 -4 -10z"/>
<path d="M3540 2740 c0 -5 7 -7 15 -4 8 4 15 8 15 10 0 2 -7 4 -15 4 -8 0 -15
-4 -15 -10z"/>
<path d="M3606 2737 c3 -10 9 -15 12 -12 3 3 0 11 -7 18 -10 9 -11 8 -5 -6z"/>
<path d="M1996 2725 c4 -8 8 -15 10 -15 2 0 4 7 4 15 0 8 -4 15 -10 15 -5 0
-7 -7 -4 -15z"/>
<path d="M3510 2730 c0 -5 5 -10 10 -10 6 0 10 5 10 10 0 6 -4 10 -10 10 -5 0
-10 -4 -10 -10z"/>
<path d="M3633 2718 c-2 -18 0 -20 7 -8 12 18 13 30 2 30 -4 0 -9 -10 -9 -22z"/>
<path d="M2020 2718 c0 -11 12 -10 30 2 12 7 10 9 -8 7 -12 0 -22 -5 -22 -9z"/>
<path d="M3340 2719 c0 -15 67 -99 112 -140 10 -9 18 -23 18 -30 0 -11 2 -11
9 -1 5 9 -11 32 -50 71 -32 32 -65 71 -74 87 -9 17 -15 22 -15 13z"/>
<path d="M3400 2715 c0 -8 2 -15 4 -15 2 0 6 7 10 15 3 8 1 15 -4 15 -6 0 -10
-7 -10 -15z"/>
<path d="M3560 2722 c0 -4 9 -8 20 -9 11 -1 20 2 20 5 0 4 -9 8 -20 9 -11 1
-20 -2 -20 -5z"/>
<path d="M3656 2715 c-3 -8 -1 -15 4 -15 6 0 10 7 10 15 0 8 -2 15 -4 15 -2 0
-6 -7 -10 -15z"/>
<path d="M2135 2710 c-3 -5 -1 -10 4 -10 6 0 11 5 11 10 0 6 -2 10 -4 10 -3 0
-8 -4 -11 -10z"/>
<path d="M3490 2710 c0 -5 5 -10 11 -10 5 0 7 5 4 10 -3 6 -8 10 -11 10 -2 0
-4 -4 -4 -10z"/>
<path d="M3535 2710 c-3 -5 -1 -10 4 -10 6 0 11 5 11 10 0 6 -2 10 -4 10 -3 0
-8 -4 -11 -10z"/>
<path d="M2045 2700 c-3 -5 -1 -10 4 -10 6 0 11 5 11 10 0 6 -2 10 -4 10 -3 0
-8 -4 -11 -10z"/>
<path d="M3420 2700 c0 -5 5 -10 11 -10 5 0 7 5 4 10 -3 6 -8 10 -11 10 -2 0
-4 -4 -4 -10z"/>
<path d="M3605 2700 c-3 -5 -1 -10 4 -10 6 0 11 5 11 10 0 6 -2 10 -4 10 -3 0
-8 -4 -11 -10z"/>
<path d="M3455 2690 c3 -5 8 -10 11 -10 2 0 4 5 4 10 0 6 -5 10 -11 10 -5 0
-7 -4 -4 -10z"/>
<path d="M3570 2689 c0 -5 5 -7 10 -4 6 3 10 8 10 11 0 2 -4 4 -10 4 -5 0 -10
-5 -10 -11z"/>
<path d="M2375 2680 c3 -5 11 -10 16 -10 6 0 7 5 4 10 -3 6 -11 10 -16 10 -6
0 -7 -4 -4 -10z"/>
<path d="M3321 2683 c8 -2 23 -16 32 -31 9 -15 30 -41 46 -58 16 -18 27 -35
24 -38 -4 -3 -1 -6 5 -6 20 0 14 14 -22 52 -19 20 -42 48 -51 62 -10 14 -25
25 -34 25 -14 -1 -14 -2 0 -6z"/>
<path d="M3480 2674 c0 -8 -4 -12 -10 -9 -5 3 -10 1 -10 -4 0 -6 5 -11 12 -11
6 0 9 -3 5 -6 -3 -3 12 -23 34 -43 21 -21 36 -41 33 -44 -4 -3 2 -5 13 -4 15
1 9 10 -29 47 -37 36 -46 51 -41 68 3 12 3 22 -1 22 -3 0 -6 -7 -6 -16z"/>
<path d="M3508 2683 c6 -2 18 -2 25 0 6 3 1 5 -13 5 -14 0 -19 -2 -12 -5z"/>
<path d="M3553 2665 c1 -16 10 -38 21 -47 29 -27 33 -22 6 7 -13 14 -18 25
-12 25 7 0 12 5 12 11 0 5 -4 8 -9 4 -5 -3 -12 3 -14 12 -3 10 -4 5 -4 -12z"/>
<path d="M3273 2663 c1 -21 9 -27 30 -24 4 0 7 -3 7 -9 0 -5 5 -10 11 -10 5 0
7 5 4 10 -3 6 -3 10 2 10 4 -1 20 -18 35 -39 19 -29 23 -42 15 -50 -8 -8 -8
-11 1 -11 7 0 12 5 12 11 0 5 6 7 13 3 12 -8 -5 17 -31 44 -6 8 -17 22 -22 33
-7 12 -19 18 -33 15 -14 -2 -26 4 -34 18 l-12 21 2 -22z"/>
<path d="M3298 2668 c5 -5 16 -8 23 -6 8 3 3 7 -10 11 -17 4 -21 3 -13 -5z"/>
<path d="M3435 2670 c3 -5 8 -10 11 -10 2 0 4 5 4 10 0 6 -5 10 -11 10 -5 0
-7 -4 -4 -10z"/>
<path d="M2100 2659 c0 -5 5 -7 10 -4 6 3 10 8 10 11 0 2 -4 4 -10 4 -5 0 -10
-5 -10 -11z"/>
<path d="M2346 2654 c-8 -20 0 -32 36 -63 15 -13 25 -27 22 -32 -3 -5 0 -9 5
-9 21 0 11 20 -26 55 -20 19 -34 38 -30 41 4 4 27 -13 52 -38 44 -44 57 -71
33 -65 -6 1 -13 -7 -15 -18 -3 -18 -2 -18 5 -2 4 10 12 17 17 16 6 -1 11 4 13
13 2 12 -90 118 -103 118 -2 0 -6 -7 -9 -16z"/>
<path d="M3500 2658 c0 -4 9 -8 20 -8 11 0 20 4 20 8 0 4 -9 8 -20 8 -11 0
-20 -4 -20 -8z"/>
<path d="M2017 2649 c7 -7 15 -10 18 -7 3 3 -2 9 -12 12 -14 6 -15 5 -6 -5z"/>
<path d="M2070 2650 c0 -5 5 -10 10 -10 6 0 10 5 10 10 0 6 -4 10 -10 10 -5 0
-10 -4 -10 -10z"/>
<path d="M2440 2612 c39 -37 47 -51 38 -60 -9 -9 -9 -12 0 -12 7 0 12 5 12 11
0 5 5 7 10 4 23 -14 7 7 -41 54 -29 28 -56 51 -60 51 -5 0 14 -22 41 -48z"/>
<path d="M2051 2634 c0 -11 3 -14 6 -6 3 7 2 16 -1 19 -3 4 -6 -2 -5 -13z"/>
<path d="M2460 2631 c14 -11 30 -21 35 -21 11 0 -7 14 -40 31 -13 7 -12 3 5
-10z"/>
<path d="M2095 2630 c-3 -5 -1 -10 4 -10 6 0 11 5 11 10 0 6 -2 10 -4 10 -3 0
-8 -4 -11 -10z"/>
<path d="M2175 2630 c-3 -5 -1 -10 4 -10 6 0 11 5 11 10 0 6 -2 10 -4 10 -3 0
-8 -4 -11 -10z"/>
<path d="M3210 2638 c0 -2 9 -11 20 -21 11 -9 20 -13 20 -7 0 5 -9 14 -20 20
-11 6 -20 9 -20 8z"/>
<path d="M3264 2625 c11 -8 23 -15 28 -15 4 0 7 -5 6 -12 -2 -6 5 -13 15 -14
12 -1 13 0 2 3 -8 2 -13 8 -10 13 3 5 -9 16 -27 25 -29 14 -30 14 -14 0z"/>
<path d="M3546 2605 c20 -19 39 -33 42 -31 5 6 -60 65 -72 66 -5 0 9 -16 30
-35z"/>
<path d="M2280 2590 c-23 -26 -37 -35 -42 -27 -6 9 -8 9 -8 0 0 -27 21 -22 55
14 l35 37 24 -26 c18 -19 22 -28 13 -37 -8 -8 -8 -11 1 -11 7 0 12 5 12 11 0
5 5 7 10 4 20 -12 9 4 -26 39 -20 20 -37 36 -37 35 -1 -1 -18 -18 -37 -39z"/>
<path d="M2130 2609 c0 -5 5 -7 10 -4 6 3 10 8 10 11 0 2 -4 4 -10 4 -5 0 -10
-5 -10 -11z"/>
<path d="M3196 2604 c-8 -20 -8 -24 2 -24 4 0 8 9 9 20 2 24 -3 26 -11 4z"/>
<path d="M3616 2604 c-23 -23 -20 -30 4 -9 11 10 20 20 20 22 0 7 -9 2 -24
-13z"/>
<path d="M2060 2601 c0 -5 9 -7 20 -4 11 3 20 7 20 9 0 2 -9 4 -20 4 -11 0
-20 -4 -20 -9z"/>
<path d="M2113 2595 c1 -11 -2 -25 -5 -31 -4 -6 -1 -11 7 -11 8 0 12 4 9 9 -3
4 0 8 5 8 6 0 11 5 11 11 0 5 -4 8 -9 4 -5 -3 -12 3 -15 12 -4 15 -4 14 -3 -2z"/>
<path d="M2155 2599 c-11 -16 -1 -19 13 -3 7 8 8 14 3 14 -5 0 -13 -5 -16 -11z"/>
<path d="M2502 2603 c-10 -4 -8 -9 7 -20 12 -8 19 -19 16 -24 -4 -5 -1 -9 4
-9 15 0 14 16 -4 33 -8 8 -11 17 -8 21 7 7 4 7 -15 -1z"/>
<path d="M3225 2590 c0 -8 7 -14 13 -12 7 1 12 -2 12 -6 0 -5 7 -17 15 -28 14
-16 14 -15 0 14 -9 18 -20 30 -25 27 -5 -3 -10 0 -13 7 -2 7 -3 6 -2 -2z"/>
<path d="M3260 2600 c0 -5 5 -10 11 -10 5 0 7 5 4 10 -3 6 -8 10 -11 10 -2 0
-4 -4 -4 -10z"/>
<path d="M3339 2589 c11 -12 17 -29 14 -38 -4 -13 -3 -13 5 -2 11 15 -12 61
-30 61 -5 0 0 -9 11 -21z"/>
<path d="M3153 2580 c1 -30 33 -61 53 -53 9 3 14 0 12 -8 -2 -7 6 -14 17 -16
18 -3 18 -2 2 5 -10 4 -18 12 -18 17 0 6 -6 10 -14 10 -8 0 -22 8 -32 18 -11
10 -13 17 -5 17 7 0 12 5 12 11 0 5 -4 8 -9 5 -5 -4 -11 0 -14 6 -3 7 -5 2 -4
-12z"/>
<path d="M2085 2580 c-3 -5 -1 -10 4 -10 6 0 11 5 11 10 0 6 -2 10 -4 10 -3 0
-8 -4 -11 -10z"/>
<path d="M2280 2549 c-46 -52 -48 -54 -30 -44 8 5 26 21 39 37 27 32 41 36 41
11 0 -9 -2 -14 -5 -11 -7 6 -72 -57 -86 -84 -5 -10 15 7 46 37 42 42 54 61 50
76 -8 26 -14 23 -55 -22z"/>
<path d="M2550 2580 c0 -5 5 -10 11 -10 5 0 7 5 4 10 -3 6 -8 10 -11 10 -2 0
-4 -4 -4 -10z"/>
<path d="M3276 2565 c4 -8 8 -15 10 -15 2 0 4 7 4 15 0 8 -4 15 -10 15 -5 0
-7 -7 -4 -15z"/>
<path d="M2572 2553 c-6 -10 -13 -17 -17 -15 -3 1 -13 -4 -21 -13 -9 -8 -11
-15 -4 -15 6 0 13 7 16 15 4 8 10 12 15 9 5 -3 12 2 15 10 3 9 10 16 16 16 5
0 6 -4 3 -10 -3 -5 -1 -10 5 -10 14 0 8 22 -7 27 -6 2 -16 -4 -21 -14z"/>
<path d="M3070 2567 c0 -9 127 -131 140 -134 5 -2 10 2 10 7 0 6 -5 10 -11 10
-7 0 -19 8 -28 18 -41 42 -111 106 -111 99z"/>
<path d="M3190 2562 c0 -5 7 -9 15 -9 8 0 15 4 15 9 0 4 -7 8 -15 8 -8 0 -15
-4 -15 -8z"/>
<path d="M3300 2558 c0 -11 12 -10 30 2 12 7 10 9 -8 7 -12 0 -22 -5 -22 -9z"/>
<path d="M3230 2550 c0 -5 5 -10 11 -10 5 0 7 5 4 10 -3 6 -8 10 -11 10 -2 0
-4 -4 -4 -10z"/>
<path d="M3325 2540 c-3 -5 -1 -10 4 -10 6 0 11 5 11 10 0 6 -2 10 -4 10 -3 0
-8 -4 -11 -10z"/>
<path d="M3445 2540 c-3 -5 -1 -10 4 -10 6 0 11 5 11 10 0 6 -2 10 -4 10 -3 0
-8 -4 -11 -10z"/>
<path d="M2376 2531 c-4 -5 3 -7 14 -4 23 6 26 13 6 13 -8 0 -17 -4 -20 -9z"/>
<path d="M2495 2530 c-3 -5 -3 -10 2 -10 4 -1 -5 -8 -20 -16 -15 -8 -25 -19
-22 -23 3 -5 -2 -11 -10 -15 -8 -3 -15 -10 -15 -16 0 -7 5 -7 13 2 7 7 13 17
13 21 -1 5 9 14 21 20 12 7 22 16 22 22 0 5 8 12 18 16 16 7 16 8 1 8 -9 1
-20 -3 -23 -9z"/>
<path d="M2615 2530 c-3 -5 -3 -10 2 -11 4 0 -1 -5 -12 -10 -19 -8 -19 -9 -1
-6 11 1 18 6 17 12 -1 5 6 12 16 16 16 7 16 8 1 8 -9 1 -20 -3 -23 -9z"/>
<path d="M2661 2524 c0 -11 3 -14 6 -6 3 7 2 16 -1 19 -3 4 -6 -2 -5 -13z"/>
<path d="M2960 2530 c0 -5 -8 -7 -17 -4 -16 5 -16 4 -2 -8 9 -7 15 -21 13 -31
-1 -9 1 -15 6 -12 5 3 10 -1 13 -7 2 -7 7 -10 11 -7 4 4 1 13 -7 21 -8 7 -12
24 -11 36 2 12 2 22 -1 22 -3 0 -5 -4 -5 -10z"/>
<path d="M2987 2525 c-4 -8 0 -27 8 -42 10 -18 15 -22 15 -11 0 9 -5 20 -10
23 -6 4 -8 15 -5 26 7 22 0 26 -8 4z"/>
<path d="M3030 2534 c1 -12 39 -61 40 -51 0 5 -9 20 -20 34 -11 14 -20 22 -20
17z"/>
<path d="M3287 2527 c-3 -8 3 -13 17 -14 11 0 15 1 8 4 -6 3 -10 9 -6 14 3 5
1 9 -4 9 -6 0 -12 -6 -15 -13z"/>
<path d="M3410 2529 c0 -5 5 -7 10 -4 6 3 10 8 10 11 0 2 -4 4 -10 4 -5 0 -10
-5 -10 -11z"/>
<path d="M2335 2519 c-11 -16 -1 -19 13 -3 7 8 8 14 3 14 -5 0 -13 -5 -16 -11z"/>
<path d="M2460 2519 c0 -5 5 -7 10 -4 6 3 10 8 10 11 0 2 -4 4 -10 4 -5 0 -10
-5 -10 -11z"/>
<path d="M2574 2515 c-4 -8 -10 -12 -15 -9 -5 3 -12 -2 -15 -10 -3 -9 -10 -16
-16 -16 -5 0 -6 5 -3 10 3 6 1 10 -4 10 -6 0 -11 -5 -11 -11 0 -5 -4 -8 -9 -4
-10 6 -36 -33 -28 -42 3 -2 8 4 12 16 4 14 12 18 30 15 16 -3 27 2 34 13 5 10
12 17 16 15 3 -1 13 4 21 13 9 8 11 15 4 15 -6 0 -13 -7 -16 -15z"/>
<path d="M2700 2519 c0 -5 5 -7 10 -4 6 3 10 8 10 11 0 2 -4 4 -10 4 -5 0 -10
-5 -10 -11z"/>
<path d="M2762 2518 c-10 -5 -4 -6 16 -4 17 2 32 0 32 -5 0 -5 5 -9 11 -9 5 0
8 4 4 9 -3 5 3 11 12 14 10 2 1 4 -20 3 -21 0 -45 -4 -55 -8z"/>
<path d="M2870 2517 c0 -5 9 -7 20 -4 21 5 45 -16 35 -33 -3 -5 -1 -10 4 -10
16 0 13 26 -5 41 -19 15 -54 20 -54 6z"/>
<path d="M3257 2510 c10 -11 19 -20 21 -20 1 0 -2 9 -8 20 -6 11 -15 20 -20
20 -6 0 -2 -9 7 -20z"/>
<path d="M3358 2523 c7 -3 16 -2 19 1 4 3 -2 6 -13 5 -11 0 -14 -3 -6 -6z"/>
<path d="M3395 2508 c3 -19 -23 -61 -34 -54 -4 3 -7 -4 -8 -14 -1 -15 3 -14
26 9 16 14 26 29 24 34 -2 4 1 7 6 7 6 0 11 5 11 11 0 5 -4 8 -9 4 -5 -3 -11
0 -14 7 -2 7 -3 5 -2 -4z"/>
<path d="M3483 2523 c9 -2 15 -9 12 -14 -4 -5 -2 -9 3 -9 6 0 12 6 15 13 3 8
-4 13 -22 14 -14 0 -18 -1 -8 -4z"/>
<path d="M2393 2498 c-2 -18 0 -20 7 -8 12 18 13 30 2 30 -4 0 -9 -10 -9 -22z"/>
<path d="M2432 2504 c-7 -7 -12 -17 -11 -20 0 -4 -5 -11 -13 -16 -11 -8 -11
-9 0 -6 8 2 13 7 12 12 -1 4 7 14 17 21 10 7 16 16 13 18 -3 3 -11 -1 -18 -9z"/>
<path d="M2635 2501 c-4 -14 -12 -18 -30 -15 -15 3 -27 -2 -33 -12 -5 -9 -13
-16 -18 -17 -14 -1 -37 -27 -24 -27 6 0 13 7 16 15 4 8 10 12 15 9 5 -3 12 2
15 10 3 9 10 16 16 16 5 0 6 -4 3 -10 -3 -5 -1 -10 4 -10 6 0 11 5 11 11 0 5
4 8 9 4 10 -6 36 33 28 42 -3 2 -8 -4 -12 -16z"/>
<path d="M2672 2504 c-7 -7 -13 -17 -13 -21 0 -5 -9 -12 -19 -18 -10 -5 -19
-14 -19 -20 0 -5 -8 -13 -18 -17 -17 -7 -17 -8 0 -5 10 1 17 6 15 10 -2 5 8
15 22 22 14 7 24 16 22 20 -2 4 5 13 15 20 10 7 16 16 13 18 -3 3 -11 -1 -18
-9z"/>
<path d="M3010 2510 c0 -5 5 -10 11 -10 5 0 7 5 4 10 -3 6 -8 10 -11 10 -2 0
-4 -4 -4 -10z"/>
<path d="M3344 2506 c24 -19 36 -20 36 -4 0 6 -3 8 -6 5 -4 -3 -16 -2 -28 4
-20 10 -20 10 -2 -5z"/>
<path d="M3457 2509 c7 -7 15 -10 18 -7 3 3 -2 9 -12 12 -14 6 -15 5 -6 -5z"/>
<path d="M2302 2490 c-15 -24 -15 -30 -1 -30 5 0 8 4 4 9 -3 5 -1 12 5 16 5 3
10 2 10 -4 0 -5 9 -9 20 -8 11 1 20 5 20 10 0 5 -7 7 -15 3 -8 -3 -18 1 -22 9
-7 12 -11 11 -21 -5z"/>
<path d="M2350 2506 c0 -2 7 -6 15 -10 8 -3 15 -1 15 4 0 6 -7 10 -15 10 -8 0
-15 -2 -15 -4z"/>
<path d="M2704 2494 c-18 -15 -18 -15 2 -5 12 6 24 7 28 4 3 -3 6 -1 6 5 0 16
-12 15 -36 -4z"/>
<path d="M2845 2500 c3 -5 8 -10 11 -10 2 0 4 5 4 10 0 6 -5 10 -11 10 -5 0
-7 -4 -4 -10z"/>
<path d="M2751 2484 c0 -11 3 -14 6 -6 3 7 2 16 -1 19 -3 4 -6 -2 -5 -13z"/>
<path d="M2773 2480 c-1 -11 2 -20 5 -20 4 0 8 9 9 20 1 11 -2 20 -5 20 -4 0
-8 -9 -9 -20z"/>
<path d="M2870 2495 c0 -5 5 -17 10 -25 5 -8 10 -10 10 -5 0 6 -5 17 -10 25
-5 8 -10 11 -10 5z"/>
<path d="M2895 2490 c3 -5 8 -10 11 -10 2 0 4 5 4 10 0 6 -5 10 -11 10 -5 0
-7 -4 -4 -10z"/>
<path d="M3290 2492 c0 -13 29 -48 30 -37 1 6 6 1 11 -10 l9 -20 -3 20 c-2 11
-9 19 -15 18 -11 -3 -16 10 -13 30 0 4 -3 7 -9 7 -5 0 -10 -4 -10 -8z"/>
<path d="M2800 2478 c0 -3 9 -6 20 -5 11 1 20 5 20 9 0 3 -9 6 -20 5 -11 -1
-20 -5 -20 -9z"/>
<path d="M3030 2483 c5 -2 10 -9 10 -14 0 -6 -4 -7 -10 -4 -5 3 -10 1 -10 -4
0 -6 4 -11 9 -11 5 0 8 -11 5 -24 -3 -19 6 -35 43 -70 26 -25 48 -44 51 -42 2
2 -17 24 -42 49 -42 40 -60 67 -36 52 6 -3 10 -1 10 4 0 6 -4 11 -9 11 -4 0
-8 12 -7 27 1 14 -5 27 -12 29 -7 1 -8 0 -2 -3z"/>
<path d="M3080 2480 c0 -5 5 -10 11 -10 5 0 7 5 4 10 -3 6 -8 10 -11 10 -2 0
-4 -4 -4 -10z"/>
<path d="M3223 2477 c1 -10 6 -17 12 -17 5 1 13 -7 17 -17 7 -17 8 -17 5 0 -1
10 -6 17 -12 17 -5 -1 -13 7 -17 17 -7 17 -8 17 -5 0z"/>
<path d="M3256 2477 c13 -7 20 -20 18 -32 -2 -11 4 -26 14 -33 16 -12 16 -14
-1 -23 -29 -17 -78 -69 -64 -69 2 0 23 19 47 41 40 37 42 42 27 54 -18 13 -24
31 -7 20 6 -3 10 -1 10 4 0 6 -5 11 -11 11 -5 0 -8 4 -4 9 3 6 -3 15 -14 20
-27 15 -41 13 -15 -2z"/>
<path d="M3340 2480 c0 -6 7 -10 15 -10 8 0 15 2 15 4 0 2 -7 6 -15 10 -8 3
-15 1 -15 -4z"/>
<path d="M2370 2470 c0 -5 5 -10 11 -10 5 0 7 5 4 10 -3 6 -8 10 -11 10 -2 0
-4 -4 -4 -10z"/>
<path d="M2718 2473 c7 -3 16 -2 19 1 4 3 -2 6 -13 5 -11 0 -14 -3 -6 -6z"/>
<path d="M2850 2470 c0 -5 5 -10 11 -10 5 0 7 5 4 10 -3 6 -8 10 -11 10 -2 0
-4 -4 -4 -10z"/>
<path d="M2262 2450 c-8 -14 -9 -21 0 -26 6 -4 8 -3 4 4 -3 6 -2 13 4 17 5 3
10 -2 11 -12 0 -10 3 -13 5 -6 3 7 2 19 -3 27 -7 13 -10 13 -21 -4z"/>
<path d="M2675 2459 c-4 -6 -4 -13 -1 -16 3 -4 6 -1 6 6 0 7 5 9 10 6 6 -3 10
-1 10 4 0 14 -17 14 -25 0z"/>
<path d="M2900 2460 c0 -5 5 -10 11 -10 5 0 7 5 4 10 -3 6 -8 10 -11 10 -2 0
-4 -4 -4 -10z"/>
<path d="M3060 2460 c0 -5 5 -10 11 -10 5 0 7 5 4 10 -3 6 -8 10 -11 10 -2 0
-4 -4 -4 -10z"/>
<path d="M2335 2450 c3 -5 8 -10 11 -10 2 0 4 5 4 10 0 6 -5 10 -11 10 -5 0
-7 -4 -4 -10z"/>
<path d="M2495 2450 c-3 -5 -3 -10 2 -11 4 0 -1 -5 -12 -10 -19 -8 -19 -9 -1
-6 11 1 18 6 17 12 -1 5 6 12 16 16 16 7 16 8 1 8 -9 1 -20 -3 -23 -9z"/>
<path d="M2710 2455 c0 -5 5 -17 10 -25 5 -8 10 -10 10 -5 0 6 -5 17 -10 25
-5 8 -10 11 -10 5z"/>
<path d="M2735 2450 c3 -5 8 -10 11 -10 2 0 4 5 4 10 0 6 -5 10 -11 10 -5 0
-7 -4 -4 -10z"/>
<path d="M2815 2450 c3 -5 8 -10 11 -10 2 0 4 5 4 10 0 6 -5 10 -11 10 -5 0
-7 -4 -4 -10z"/>
<path d="M2935 2451 c3 -5 -3 -12 -12 -15 -10 -2 -3 -3 15 -1 17 2 32 -1 32
-6 0 -5 5 -9 11 -9 5 0 8 4 4 9 -3 5 3 12 12 15 10 2 3 3 -14 1 -18 -2 -33 1
-33 6 0 5 -5 9 -11 9 -5 0 -8 -4 -4 -9z"/>
<path d="M3095 2451 c3 -5 0 -11 -7 -14 -7 -2 -5 -3 6 -1 10 1 28 -7 41 -19
70 -69 89 -75 26 -9 -21 22 -42 38 -45 35 -3 -4 -6 -1 -6 5 0 7 -5 12 -11 12
-5 0 -8 -4 -4 -9z"/>
<path d="M2310 2443 c5 -2 10 -9 10 -14 0 -6 -4 -7 -10 -4 -5 3 -10 2 -10 -3
0 -6 6 -12 14 -15 9 -4 13 2 12 16 -1 11 -7 22 -14 23 -7 1 -8 0 -2 -3z"/>
<path d="M2360 2434 c0 -8 -4 -12 -10 -9 -5 3 -10 1 -10 -4 0 -6 4 -11 9 -11
6 0 8 -9 6 -20 -3 -17 -1 -18 15 -7 16 9 17 13 6 19 -8 5 -12 17 -9 28 3 11 3
20 -1 20 -3 0 -6 -7 -6 -16z"/>
<path d="M2390 2440 c18 -12 30 -13 30 -2 0 4 -10 9 -22 9 -18 2 -20 0 -8 -7z"/>
<path d="M2450 2436 c0 -9 -4 -15 -8 -12 -5 3 -16 -4 -25 -15 -9 -10 -12 -19
-7 -19 6 0 13 7 16 15 4 8 10 12 15 9 11 -6 24 24 15 33 -3 4 -6 -1 -6 -11z"/>
<path d="M2571 2433 c-5 -10 -13 -17 -18 -16 -4 1 -11 -7 -15 -18 -4 -10 -3
-19 2 -19 6 0 10 9 10 21 0 11 4 18 8 15 5 -3 16 4 25 15 9 10 13 19 7 19 -5
0 -13 -8 -19 -17z"/>
<path d="M2645 2440 c-3 -5 -1 -10 4 -10 6 0 11 5 11 10 0 6 -2 10 -4 10 -3 0
-8 -4 -11 -10z"/>
<path d="M2840 2434 c0 -8 -4 -12 -10 -9 -5 3 -10 2 -10 -2 0 -18 55 -42 70
-32 13 9 13 10 0 6 -25 -7 -49 11 -43 33 3 11 3 20 -1 20 -3 0 -6 -7 -6 -16z"/>
<path d="M2868 2443 c7 -3 16 -2 19 1 4 3 -2 6 -13 5 -11 0 -14 -3 -6 -6z"/>
<path d="M2690 2430 c0 -5 5 -10 11 -10 5 0 7 5 4 10 -3 6 -8 10 -11 10 -2 0
-4 -4 -4 -10z"/>
<path d="M3230 2431 c0 -6 7 -14 15 -19 13 -7 11 -13 -15 -35 -16 -15 -30 -32
-30 -38 0 -6 -18 8 -40 30 -22 22 -40 37 -40 32 0 -4 18 -26 40 -48 34 -35 40
-38 45 -22 3 10 20 30 37 44 l31 26 -22 20 c-11 11 -21 15 -21 10z"/>
<path d="M2380 2420 c0 -6 7 -10 15 -10 8 0 15 2 15 4 0 2 -7 6 -15 10 -8 3
-15 1 -15 -4z"/>
<path d="M2664 2415 c-4 -8 -10 -15 -16 -15 -5 0 -6 5 -3 10 3 6 1 10 -5 10
-7 0 -10 -6 -7 -12 2 -7 16 -13 30 -12 15 1 27 -3 27 -7 0 -5 5 -9 11 -9 5 0
7 5 4 10 -3 6 2 10 11 10 9 0 46 -30 82 -66 36 -36 70 -67 76 -68 6 -1 18 -6
26 -11 13 -8 13 -7 1 8 -8 10 -16 15 -19 12 -3 -3 -30 20 -60 51 -70 71 -94
86 -127 80 -20 -4 -25 -2 -21 10 3 7 3 14 0 14 -2 0 -7 -7 -10 -15z"/>
<path d="M2860 2418 c0 -3 9 -6 20 -5 11 1 20 5 20 9 0 3 -9 6 -20 5 -11 -1
-20 -5 -20 -9z"/>
<path d="M3005 2420 c3 -5 8 -10 11 -10 2 0 4 5 4 10 0 6 -5 10 -11 10 -5 0
-7 -4 -4 -10z"/>
<path d="M2510 2400 c0 -11 2 -20 4 -20 2 0 6 9 9 20 3 11 1 20 -4 20 -5 0 -9
-9 -9 -20z"/>
<path d="M2911 2404 c0 -11 3 -14 6 -6 3 7 2 16 -1 19 -3 4 -6 -2 -5 -13z"/>
<path d="M2933 2400 c-1 -11 2 -20 5 -20 4 0 8 9 9 20 1 11 -2 20 -5 20 -4 0
-8 -9 -9 -20z"/>
<path d="M3070 2412 c0 -12 81 -92 93 -92 6 0 -2 10 -16 23 -14 12 -37 35 -51
50 -14 15 -26 24 -26 19z"/>
<path d="M3095 2410 c3 -5 8 -10 11 -10 2 0 4 5 4 10 0 6 -5 10 -11 10 -5 0
-7 -4 -4 -10z"/>
<path d="M2460 2400 c0 -5 5 -10 10 -10 6 0 10 5 10 10 0 6 -4 10 -10 10 -5 0
-10 -4 -10 -10z"/>
<path d="M2576 2403 c-10 -10 -7 -23 5 -23 5 0 7 5 4 10 -3 6 -2 10 4 10 5 0
11 -5 13 -12 3 -8 6 -7 10 3 6 15 -23 24 -36 12z"/>
<path d="M2961 2394 c0 -11 3 -14 6 -6 3 7 2 16 -1 19 -3 4 -6 -2 -5 -13z"/>
<path d="M2990 2400 c8 -5 20 -10 25 -10 6 0 3 5 -5 10 -8 5 -19 10 -25 10 -5
0 -3 -5 5 -10z"/>
<path d="M2485 2380 c-3 -5 -1 -10 4 -10 6 0 11 5 11 10 0 6 -2 10 -4 10 -3 0
-8 -4 -11 -10z"/>
<path d="M2620 2380 c0 -5 5 -10 11 -10 5 0 7 5 4 10 -3 6 -8 10 -11 10 -2 0
-4 -4 -4 -10z"/>
<path d="M2980 2380 c0 -5 5 -10 11 -10 5 0 7 5 4 10 -3 6 -8 10 -11 10 -2 0
-4 -4 -4 -10z"/>
<path d="M2381 2371 c-7 -5 -9 -11 -5 -14 5 -3 15 1 22 9 14 16 5 18 -17 5z"/>
<path d="M2450 2369 c0 -5 5 -7 10 -4 6 3 10 8 10 11 0 2 -4 4 -10 4 -5 0 -10
-5 -10 -11z"/>
<path d="M2655 2370 c3 -5 8 -10 11 -10 2 0 4 5 4 10 0 6 -5 10 -11 10 -5 0
-7 -4 -4 -10z"/>
<path d="M2710 2370 c-13 -8 -12 -10 3 -10 9 0 17 5 17 10 0 12 -1 12 -20 0z"/>
<path d="M2895 2370 c3 -5 8 -10 11 -10 2 0 4 5 4 10 0 6 -5 10 -11 10 -5 0
-7 -4 -4 -10z"/>
<path d="M3015 2371 c3 -5 0 -11 -7 -14 -7 -2 -5 -3 5 -1 10 1 36 -13 58 -33
21 -19 39 -33 39 -30 0 11 -68 75 -74 70 -3 -4 -6 -1 -6 5 0 7 -5 12 -11 12
-5 0 -8 -4 -4 -9z"/>
<path d="M2523 2362 c9 -2 15 -8 12 -13 -4 -5 -2 -9 4 -9 5 0 12 6 15 13 5 10
7 10 12 0 3 -7 10 -13 15 -13 6 0 8 4 4 9 -3 5 3 11 12 13 10 3 -7 4 -37 4
-30 0 -47 -1 -37 -4z"/>
<path d="M2680 2354 c0 -8 -4 -12 -10 -9 -5 3 -10 2 -10 -2 0 -5 18 -20 39
-33 21 -14 37 -28 35 -32 -3 -4 5 -12 16 -18 13 -7 20 -7 20 0 0 5 -7 10 -16
10 -8 0 -13 4 -10 9 3 5 -9 18 -28 29 -27 16 -33 25 -29 41 3 12 3 21 -1 21
-3 0 -6 -7 -6 -16z"/>
<path d="M2741 2362 c-1 -8 22 -36 50 -63 55 -53 72 -62 33 -16 -13 15 -24 24
-24 20 0 -4 -9 6 -20 22 -11 17 -20 26 -21 20 0 -5 -4 -1 -9 10 -5 11 -9 14
-9 7z"/>
<path d="M2920 2354 c0 -8 -4 -12 -10 -9 -5 3 -10 1 -10 -4 0 -6 5 -11 12 -11
6 0 8 -3 5 -6 -4 -4 3 -15 15 -25 31 -27 41 -23 13 5 -16 16 -22 31 -18 45 3
12 3 21 -1 21 -3 0 -6 -7 -6 -16z"/>
<path d="M2948 2363 c7 -3 16 -2 19 1 4 3 -2 6 -13 5 -11 0 -14 -3 -6 -6z"/>
<path d="M3279 2353 c-13 -16 -12 -17 4 -4 16 13 21 21 13 21 -2 0 -10 -8 -17
-17z"/>
<path d="M2473 2340 c1 -11 5 -20 9 -20 3 0 6 9 5 20 -1 11 -5 20 -9 20 -3 0
-6 -9 -5 -20z"/>
<path d="M2633 2340 c-1 -11 2 -20 6 -20 4 0 17 -9 29 -20 12 -12 22 -17 22
-12 0 6 -11 17 -25 26 -15 10 -22 22 -19 31 4 8 2 15 -3 15 -5 0 -9 -9 -10
-20z"/>
<path d="M2500 2339 c0 -5 5 -7 10 -4 6 3 10 8 10 11 0 2 -4 4 -10 4 -5 0 -10
-5 -10 -11z"/>
<path d="M2605 2340 c3 -5 8 -10 11 -10 2 0 4 5 4 10 0 6 -5 10 -11 10 -5 0
-7 -4 -4 -10z"/>
<path d="M2700 2341 c0 -4 9 -12 20 -19 12 -7 20 -8 20 -2 0 5 -5 10 -11 10
-5 0 -8 4 -5 8 3 5 -1 9 -9 9 -8 0 -15 -3 -15 -6z"/>
<path d="M2940 2338 c0 -3 9 -6 20 -5 11 1 20 5 20 9 0 3 -9 6 -20 5 -11 -1
-20 -5 -20 -9z"/>
<path d="M2520 2320 c0 -5 5 -10 10 -10 6 0 10 5 10 10 0 6 -4 10 -10 10 -5 0
-10 -4 -10 -10z"/>
<path d="M2550 2319 c0 -6 5 -7 10 -4 6 3 10 1 10 -4 0 -6 5 -11 11 -11 5 0 7
5 4 10 -3 6 -2 10 4 10 5 0 12 -5 14 -10 3 -6 4 -5 3 2 -3 15 -56 21 -56 7z"/>
<path d="M2750 2310 c0 -5 5 -10 11 -10 5 0 7 5 4 10 -3 6 -8 10 -11 10 -2 0
-4 -4 -4 -10z"/>
<path d="M2955 2310 c3 -5 8 -10 11 -10 2 0 4 5 4 10 0 6 -5 10 -11 10 -5 0
-7 -4 -4 -10z"/>
<path d="M2620 2301 c0 -5 7 -11 15 -15 8 -3 15 -1 15 3 0 5 -7 11 -15 15 -8
3 -15 1 -15 -3z"/>
<path d="M2980 2300 c0 -5 5 -10 11 -10 5 0 7 5 4 10 -3 6 -8 10 -11 10 -2 0
-4 -4 -4 -10z"/>
<path d="M3015 2291 c3 -5 -3 -12 -12 -14 -10 -3 -6 -4 9 -3 15 1 31 6 35 11
4 4 2 5 -4 1 -7 -4 -13 -2 -13 3 0 6 -5 11 -11 11 -5 0 -8 -4 -4 -9z"/>
<path d="M2700 2280 c0 -5 5 -10 11 -10 5 0 7 5 4 10 -3 6 -8 10 -11 10 -2 0
-4 -4 -4 -10z"/>
<path d="M2777 2270 c19 -22 33 -26 33 -9 0 5 -4 8 -9 5 -5 -3 -11 1 -15 9 -3
8 -10 15 -16 15 -5 0 -2 -9 7 -20z"/>
<path d="M3471 4125 c1 -32 -6 -54 -21 -68 -10 -10 -12 -9 -7 5 3 9 -15 -4
-39 -29 -25 -25 -48 -42 -51 -39 -4 3 19 31 50 62 32 30 57 59 57 64 0 5 -28
-19 -62 -53 -61 -60 -63 -63 -49 -88 12 -21 17 -24 28 -14 7 7 14 19 15 26 4
16 40 60 46 55 2 -2 -1 -15 -7 -28 -10 -20 -10 -21 1 -4 7 11 28 35 46 53 34
37 43 54 15 32 -14 -12 -16 -12 -11 2 3 9 2 22 -2 30 -7 10 -9 9 -9 -6z m-91
-140 c-7 -9 -15 -13 -17 -11 -7 7 7 26 19 26 6 0 6 -6 -2 -15z"/>
<path d="M1820 3515 c-7 -9 -8 -15 -2 -15 5 0 12 7 16 15 3 8 4 15 2 15 -2 0
-9 -7 -16 -15z"/>
</g>
</svg>
